<svg width="40" height="28" viewBox="0 0 40 28" fill="none" xmlns="http://www.w3.org/2000/svg">
<path d="M16.304 0.737484C16.7957 1.22915 17.0317 1.82325 17.012 2.51978C16.9907 3.2163 16.7342 3.8104 16.2425 4.30207L9.29776 11.2469L36.7082 11.2469C37.4047 11.2469 37.989 11.4829 38.461 11.9549C38.9313 12.4252 39.1665 13.0087 39.1665 13.7052C39.1665 14.4017 38.9313 14.986 38.461 15.458C37.989 15.9283 37.4047 16.1635 36.7082 16.1635L9.29776 16.1635L16.304 23.1698C16.7957 23.6614 17.0415 24.2457 17.0415 24.9226C17.0415 25.5978 16.7957 26.1812 16.304 26.6729C15.8123 27.1646 15.2281 27.4104 14.5512 27.4104C13.876 27.4104 13.2925 27.1646 12.8009 26.6729L1.55401 15.426C1.30818 15.1802 1.13363 14.9139 1.03038 14.6271C0.928769 14.3403 0.877961 14.033 0.877961 13.7052C0.877961 13.3774 0.928769 13.0701 1.03038 12.7833C1.13363 12.4965 1.30818 12.2302 1.55401 11.9844L12.8623 0.676027C13.313 0.225332 13.876 -1.93771e-05 14.5512 -1.93181e-05C15.2281 -1.92589e-05 15.8123 0.245817 16.304 0.737484Z" fill="#4CA95A"/>
</svg>
