<svg width="39" height="28" viewBox="0 0 39 28" fill="none" xmlns="http://www.w3.org/2000/svg">
<path d="M22.8625 26.6729C22.3708 26.1812 22.1348 25.5871 22.1545 24.8906C22.1758 24.1941 22.4323 23.6 22.924 23.1083L29.8687 16.1635H2.45833C1.76181 16.1635 1.17754 15.9275 0.705542 15.4555C0.235181 14.9852 0 14.4017 0 13.7052C0 13.0087 0.235181 12.4244 0.705542 11.9524C1.17754 11.4821 1.76181 11.2469 2.45833 11.2469H29.8687L22.8625 4.24062C22.3708 3.74896 22.125 3.16469 22.125 2.48783C22.125 1.81261 22.3708 1.22917 22.8625 0.737499C23.3542 0.245833 23.9384 0 24.6153 0C25.2905 0 25.874 0.245833 26.3656 0.737499L37.6125 11.9844C37.8583 12.2302 38.0329 12.4965 38.1361 12.7833C38.2377 13.0701 38.2885 13.3774 38.2885 13.7052C38.2885 14.033 38.2377 14.3403 38.1361 14.6271C38.0329 14.9139 37.8583 15.1802 37.6125 15.426L26.3042 26.7344C25.8535 27.1851 25.2905 27.4104 24.6153 27.4104C23.9384 27.4104 23.3542 27.1646 22.8625 26.6729Z" fill="#4CA95A"/>
</svg>
