<svg width="59" height="59" viewBox="0 0 59 59" fill="none" xmlns="http://www.w3.org/2000/svg">
<mask id="path-1-inside-1_365_7673" fill="white">
<path d="M39.8688 26.7464V21.1003C39.8688 15.522 35.476 11 30.0578 11C24.639 11 20.2461 15.522 20.2461 21.1003V26.7464H39.8688ZM23.7842 26.7464V21.1003C23.7842 17.5388 26.5987 14.6422 30.0578 14.6422C33.5168 14.6422 36.3307 17.5389 36.3307 21.1003V26.7464"/>
</mask>
<path d="M39.8688 26.7464V21.1003C39.8688 15.522 35.476 11 30.0578 11C24.639 11 20.2461 15.522 20.2461 21.1003V26.7464H39.8688ZM23.7842 26.7464V21.1003C23.7842 17.5388 26.5987 14.6422 30.0578 14.6422C33.5168 14.6422 36.3307 17.5389 36.3307 21.1003V26.7464" fill="black"/>
<path d="M39.8688 26.7464V27.7464H40.8688V26.7464H39.8688ZM20.2461 26.7464H19.2461V27.7464H20.2461V26.7464ZM40.8688 26.7464V21.1003H38.8688V26.7464H40.8688ZM40.8688 21.1003C40.8688 14.9973 36.0555 10 30.0578 10V12C34.8966 12 38.8688 16.0467 38.8688 21.1003H40.8688ZM30.0578 10C24.0596 10 19.2461 14.9972 19.2461 21.1003H21.2461C21.2461 16.0468 25.2184 12 30.0578 12V10ZM19.2461 21.1003V26.7464H21.2461V21.1003H19.2461ZM20.2461 27.7464H39.8688V25.7464H20.2461V27.7464ZM24.7842 26.7464V21.1003H22.7842V26.7464H24.7842ZM24.7842 21.1003C24.7842 18.0636 27.1781 15.6422 30.0578 15.6422V13.6422C26.0194 13.6422 22.7842 17.014 22.7842 21.1003H24.7842ZM30.0578 15.6422C32.9373 15.6422 35.3307 18.0636 35.3307 21.1003H37.3307C37.3307 17.0142 34.0963 13.6422 30.0578 13.6422V15.6422ZM35.3307 21.1003V26.7464H37.3307V21.1003H35.3307Z" fill="black" mask="url(#path-1-inside-1_365_7673)"/>
<path d="M20 27.5862H40.1183C41.499 27.5862 42.6183 28.7055 42.6183 30.0862V43.3398C42.6183 44.7205 41.499 45.8398 40.1183 45.8398H20C18.6193 45.8398 17.5 44.7205 17.5 43.3398V30.0862C17.5 28.7055 18.6193 27.5862 20 27.5862Z" fill="black" stroke="black"/>
<path d="M32.2213 35.5141L32.2639 35.1786L31.9684 35.0142C31.2467 34.6125 30.75 33.8219 30.75 32.9054C30.75 31.5704 31.7976 30.5132 33.0596 30.5132C34.3215 30.5132 35.3691 31.5704 35.3691 32.9054C35.3691 33.822 34.8726 34.6125 34.1508 35.0142L33.8553 35.1786L33.8979 35.5141L34.2785 38.5111H31.8407L32.2213 35.5141Z" fill="#575555" stroke="black"/>
<circle cx="29.5" cy="29.5" r="28.5" stroke="black" stroke-width="2"/>
</svg>
