<svg width="59" height="59" viewBox="0 0 59 59" fill="none" xmlns="http://www.w3.org/2000/svg">
<circle cx="29.5" cy="29.5" r="28.5" stroke="black" stroke-width="2"/>
<path d="M16.197 16.1968C16.701 15.6929 17.3845 15.4099 18.0971 15.4099C18.8097 15.4099 19.4932 15.6929 19.9971 16.1968L29.5001 25.6998L39.0031 16.1968C39.51 15.7072 40.1889 15.4363 40.8935 15.4425C41.5982 15.4486 42.2722 15.7312 42.7705 16.2295C43.2688 16.7278 43.5515 17.4019 43.5576 18.1065C43.5637 18.8112 43.2928 19.49 42.8033 19.9969L33.3003 29.4999L42.8033 39.0029C43.2928 39.5098 43.5637 40.1886 43.5576 40.8933C43.5515 41.5979 43.2688 42.272 42.7705 42.7703C42.2722 43.2686 41.5982 43.5512 40.8935 43.5573C40.1889 43.5635 39.51 43.2926 39.0031 42.803L29.5001 33.3L19.9971 42.803C19.4903 43.2926 18.8114 43.5635 18.1068 43.5573C17.4021 43.5512 16.728 43.2686 16.2298 42.7703C15.7315 42.272 15.4488 41.5979 15.4427 40.8933C15.4366 40.1886 15.7075 39.5098 16.197 39.0029L25.7 29.4999L16.197 19.9969C15.6932 19.4929 15.4102 18.8095 15.4102 18.0968C15.4102 17.3842 15.6932 16.7008 16.197 16.1968Z" fill="black"/>
</svg>
