<svg width="40" height="40" viewBox="0 0 40 40" fill="none" xmlns="http://www.w3.org/2000/svg">
<circle cx="20" cy="20" r="19" stroke="white" stroke-width="2"/>
<path d="M10.7189 10.7187C11.0705 10.3671 11.5473 10.1697 12.0445 10.1697C12.5417 10.1697 13.0185 10.3671 13.3701 10.7187L20.0001 17.3487L26.6301 10.7187C26.9838 10.3771 27.4574 10.1881 27.949 10.1924C28.4406 10.1967 28.9109 10.3939 29.2586 10.7415C29.6062 11.0891 29.8034 11.5594 29.8077 12.051C29.8119 12.5426 29.6229 13.0163 29.2814 13.3699L22.6514 19.9999L29.2814 26.6299C29.6229 26.9835 29.8119 27.4572 29.8077 27.9488C29.8034 28.4404 29.6062 28.9107 29.2586 29.2583C28.9109 29.606 28.4406 29.8031 27.949 29.8074C27.4574 29.8117 26.9838 29.6227 26.6301 29.2812L20.0001 22.6512L13.3701 29.2812C13.0165 29.6227 12.5429 29.8117 12.0513 29.8074C11.5597 29.8031 11.0894 29.606 10.7417 29.2583C10.3941 28.9107 10.1969 28.4404 10.1926 27.9488C10.1884 27.4572 10.3773 26.9835 10.7189 26.6299L17.3489 19.9999L10.7189 13.3699C10.3674 13.0183 10.1699 12.5415 10.1699 12.0443C10.1699 11.5471 10.3674 11.0703 10.7189 10.7187Z" fill="white"/>
</svg>
