<svg width="26" height="23" viewBox="0 0 26 23" fill="none" xmlns="http://www.w3.org/2000/svg">
<path d="M26 7.18747C26 10.8531 23.8694 14.6145 19.6685 18.376C17.7609 20.0826 15.6839 21.5918 13.4694 22.8801C13.3256 22.9588 13.1641 23 13 23C12.8359 23 12.6744 22.9588 12.5306 22.8801C12.013 22.5926 0 15.8005 0 7.18747C0 5.67895 0.476936 4.20866 1.36325 2.98488C2.24957 1.7611 3.50032 0.845875 4.93835 0.368838C6.37639 -0.1082 7.92879 -0.12286 9.37566 0.326933C10.8225 0.776726 12.0905 1.66817 13 2.87499C13.9095 1.66817 15.1775 0.776726 16.6243 0.326933C18.0712 -0.12286 19.6236 -0.1082 21.0616 0.368838C22.4997 0.845875 23.7504 1.7611 24.6367 2.98488C25.5231 4.20866 26 5.67895 26 7.18747Z" fill="#F8C301"/>
</svg>
