<svg width="59" height="59" viewBox="0 0 59 59" fill="none" xmlns="http://www.w3.org/2000/svg">
<path fill-rule="evenodd" clip-rule="evenodd" d="M12 21.3333C12 20.1841 12.4609 19.0819 13.2814 18.2692C14.1019 17.4565 15.2147 17 16.375 17H42.625C43.7853 17 44.8981 17.4565 45.7186 18.2692C46.5391 19.0819 47 20.1841 47 21.3333V38.6667C47 39.8159 46.5391 40.9181 45.7186 41.7308C44.8981 42.5435 43.7853 43 42.625 43H16.375C15.2147 43 14.1019 42.5435 13.2814 41.7308C12.4609 40.9181 12 39.8159 12 38.6667V21.3333ZM16.375 19.1667C15.7948 19.1667 15.2384 19.3949 14.8282 19.8013C14.418 20.2076 14.1875 20.7587 14.1875 21.3333V21.8035L29.5 30.9035L44.8125 21.8035V21.3333C44.8125 20.7587 44.582 20.2076 44.1718 19.8013C43.7616 19.3949 43.2052 19.1667 42.625 19.1667H16.375ZM44.8125 24.3298L34.4044 30.5157L44.8125 36.747V24.332V24.3298ZM44.7381 39.2322L32.2803 31.7767L29.5 33.4298L26.7175 31.7767L14.2619 39.23C14.387 39.6903 14.6619 40.0968 15.0439 40.3867C15.4259 40.6765 15.8938 40.8335 16.375 40.8333H42.625C43.1059 40.8336 43.5736 40.677 43.9556 40.3875C44.3376 40.0981 44.6126 39.692 44.7381 39.2322ZM14.1875 36.747L24.5956 30.5157L14.1875 24.3298V36.7448V36.747Z" fill="black"/>
<circle cx="29.5" cy="29.5" r="28.5" stroke="black" stroke-width="2"/>
</svg>
