<svg width="55" height="34" viewBox="0 0 55 34" fill="none" xmlns="http://www.w3.org/2000/svg">
<path d="M18.1759 32.0606C19.4015 32.0606 20.5769 31.5737 21.4436 30.7071C22.3102 29.8404 22.7971 28.665 22.7971 27.4394C22.7971 26.2138 22.3102 25.0383 21.4436 24.1717C20.5769 23.3051 19.4015 22.8182 18.1759 22.8182C16.9503 22.8182 15.7749 23.3051 14.9082 24.1717C14.0416 25.0383 13.5547 26.2138 13.5547 27.4394C13.5547 28.665 14.0416 29.8404 14.9082 30.7071C15.7749 31.5737 16.9503 32.0606 18.1759 32.0606ZM41.282 32.0606C42.5076 32.0606 43.683 31.5737 44.5497 30.7071C45.4163 29.8404 45.9032 28.665 45.9032 27.4394C45.9032 26.2138 45.4163 25.0383 44.5497 24.1717C43.683 23.3051 42.5076 22.8182 41.282 22.8182C40.0563 22.8182 38.8809 23.3051 38.0143 24.1717C37.1476 25.0383 36.6607 26.2138 36.6607 27.4394C36.6607 28.665 37.1476 29.8404 38.0143 30.7071C38.8809 31.5737 40.0563 32.0606 41.282 32.0606Z" stroke="black" stroke-width="3" stroke-miterlimit="1.5" stroke-linecap="round" stroke-linejoin="round"/>
<path d="M22.911 27.4394H34.3485V3.40907C34.3485 3.04138 34.2024 2.68876 33.9424 2.42876C33.6824 2.16877 33.3298 2.02271 32.9621 2.02271H2M12.7443 27.4394H8.00758C7.82552 27.4394 7.64524 27.4035 7.47704 27.3338C7.30884 27.2642 7.156 27.1621 7.02727 27.0333C6.89853 26.9046 6.79641 26.7517 6.72674 26.5835C6.65707 26.4153 6.62121 26.2351 6.62121 26.053V14.731" stroke="black" stroke-width="3" stroke-linecap="round"/>
<path d="M4.31055 8.95453H13.553" stroke="black" stroke-width="3" stroke-linecap="round" stroke-linejoin="round"/>
<path d="M34.3496 8.95453H47.3121C47.5801 8.95459 47.8423 9.03232 48.067 9.17831C48.2917 9.3243 48.4693 9.53229 48.5783 9.7771L52.7143 19.0842C52.7931 19.2609 52.834 19.4522 52.8345 19.6457V26.053C52.8345 26.2351 52.7986 26.4154 52.7289 26.5836C52.6593 26.7518 52.5571 26.9046 52.4284 27.0333C52.2997 27.1621 52.1468 27.2642 51.9786 27.3338C51.8104 27.4035 51.6302 27.4394 51.4481 27.4394H47.0579M34.3496 27.4394H36.6602" stroke="black" stroke-width="3" stroke-linecap="round"/>
</svg>
