<svg width="39" height="32" viewBox="0 0 39 32" fill="none" xmlns="http://www.w3.org/2000/svg">
<path d="M37.961 21.1938C37.8929 21.8434 37.6544 23.2041 37.2455 23.4503C36.8367 23.6964 30.6016 28.1341 27.5351 30.3222C26.6493 31.0744 24.4074 32.353 22.5266 31.4504L5.35446 26.0144C-0.206032 24.5375 -0.369563 20.8861 0.243733 19.2451L6.27451 2.21911C6.41079 1.80885 6.92868 0.865242 7.90994 0.372925C7.94401 0.23617 10.0769 0.0857396 18.3358 0.578057L34.4858 2.83451C35.4057 3.00546 37.2455 3.77812 37.2455 5.50123C37.7225 7.6893 38.5334 13.8911 37.961 21.1938Z" fill="black"/>
<path d="M7.75333 4.59865C8.07621 3.67797 9.01629 3.12463 9.97797 3.2892L26.5262 6.12101C27.711 6.32376 28.4506 7.51835 28.1038 8.66927L23.2295 24.8491C22.9086 25.9144 21.78 26.513 20.7181 26.1812L4.18791 21.0168C3.1078 20.6793 2.52253 19.5137 2.89703 18.4459L7.75333 4.59865Z" fill="#2E2E2E" stroke="black"/>
</svg>
