<svg width="21" height="13" viewBox="0 0 21 13" fill="none" xmlns="http://www.w3.org/2000/svg">
<path d="M17.4714 1.02154L10.475 8.01799L3.47855 1.02154C3.1411 0.68409 2.72461 0.500098 2.25 0.500098C1.77539 0.500098 1.3589 0.68409 1.02145 1.02154C0.678748 1.36424 0.5 1.79098 0.5 2.2751C0.5 2.74878 0.663215 3.17042 0.996446 3.50365L0.996446 3.50365L9.42145 11.9287L9.775 11.5751L9.42145 11.9287C9.56628 12.0735 9.73611 12.1884 9.93183 12.258C10.1064 12.3207 10.2887 12.3501 10.475 12.3501C10.6613 12.3501 10.8436 12.3207 11.0182 12.258C11.2139 12.1884 11.3837 12.0735 11.5286 11.9287L11.5291 11.9281L19.9286 3.50365C20.266 3.1662 20.45 2.74971 20.45 2.2751C20.45 1.80049 20.266 1.384 19.9286 1.04654C19.5883 0.706315 19.1665 0.525097 18.687 0.525097C18.2182 0.525097 17.8021 0.6909 17.4714 1.02154Z" fill="#4CA95A" stroke="#4CA95A"/>
</svg>
