<svg width="40" height="29" viewBox="0 0 40 29" fill="none" xmlns="http://www.w3.org/2000/svg">
<path d="M23.696 27.4677C23.2043 26.976 22.9683 26.3819 22.988 25.6854C23.0093 24.9889 23.2658 24.3948 23.7575 23.9031L30.7022 16.9583H3.29183C2.5953 16.9583 2.01104 16.7223 1.53904 16.2503C1.06868 15.78 0.833496 15.1965 0.833496 14.5C0.833496 13.8035 1.06868 13.2192 1.53904 12.7472C2.01104 12.2769 2.5953 12.0417 3.29183 12.0417H30.7022L23.696 5.03542C23.2043 4.54376 22.9585 3.95949 22.9585 3.28263C22.9585 2.60741 23.2043 2.02397 23.696 1.5323C24.1877 1.04063 24.7719 0.7948 25.4488 0.7948C26.124 0.7948 26.7075 1.04063 27.1991 1.5323L38.446 12.7792C38.6918 13.025 38.8664 13.2913 38.9696 13.5781C39.0712 13.8649 39.122 14.1722 39.122 14.5C39.122 14.8278 39.0712 15.1351 38.9696 15.4219C38.8664 15.7087 38.6918 15.975 38.446 16.2208L27.1377 27.5292C26.687 27.9799 26.124 28.2052 25.4488 28.2052C24.7719 28.2052 24.1877 27.9594 23.696 27.4677Z" fill="#4CA95A"/>
</svg>
