<svg width="22" height="22" viewBox="0 0 22 22" fill="none" xmlns="http://www.w3.org/2000/svg">
<rect width="22" height="22" rx="11" fill="#F8C301"/>
<path d="M6.84867 10.3071C6.74688 10.3848 6.64722 10.4899 6.58195 10.6298L6.84924 11.6934L11.5077 15.2391C11.5078 15.2392 11.5079 15.2393 11.5081 15.2394C11.7388 15.4154 12.0081 15.5 12.2949 15.5C12.5819 15.5 12.8514 15.4153 13.0822 15.2391C13.316 15.0607 13.4862 14.7996 13.4862 14.4668C13.4862 14.1456 13.331 13.8849 13.096 13.7055L9.5521 11L13.096 8.29452C13.3257 8.11917 13.5 7.86104 13.5 7.5277C13.5 7.19437 13.3257 6.93624 13.096 6.76088C12.8608 6.58131 12.5851 6.5 12.2949 6.5C12.0135 6.5 11.7397 6.57319 11.5077 6.75033L6.84867 10.3071Z" fill="black" stroke="black"/>
</svg>
