<svg width="31" height="18" viewBox="0 0 31 18" fill="none" xmlns="http://www.w3.org/2000/svg">
<path d="M29.0569 3.69857L29.0563 3.69909L15.7569 17.0381C15.7568 17.0382 15.7567 17.0383 15.7566 17.0384C15.6435 17.1515 15.5339 17.2188 15.4289 17.2561L15.4265 17.2569C15.3 17.3024 15.1598 17.3271 15.0021 17.3271C14.8443 17.3271 14.7041 17.3024 14.5777 17.2569L14.5753 17.2561C14.4701 17.2188 14.3605 17.1513 14.2473 17.0381L0.90772 3.69857C0.638173 3.42902 0.5 3.09719 0.5 2.6667C0.5 2.24665 0.644168 1.89839 0.947304 1.59526C1.25568 1.28688 1.59267 1.14795 1.97917 1.14795C2.36567 1.14795 2.70265 1.28688 3.01103 1.59526L14.6485 13.2328L15.0021 13.5863L15.3556 13.2328L26.9931 1.59526C27.2653 1.32312 27.5915 1.18754 28.0044 1.18754C28.4084 1.18754 28.7513 1.32924 29.0569 1.63484C29.3652 1.94322 29.5042 2.2802 29.5042 2.6667C29.5042 3.0532 29.3652 3.39019 29.0569 3.69857Z" fill="black" stroke="black"/>
</svg>
