<svg width="34" height="35" viewBox="0 0 34 35" fill="none" xmlns="http://www.w3.org/2000/svg">
<path d="M19.1259 13.125H20.2614C21.7289 15.7432 24.4779 17.5 27.6254 17.5C28.3558 17.5 29.073 17.4043 29.7503 17.2266V32.8125C29.7503 34.0225 28.8007 35 27.6254 35C26.4501 35 25.5005 34.0225 25.5005 32.8125V23.1875L16.4698 30.625H20.1884C21.3637 30.625 22.3132 31.6025 22.3132 32.8125C22.3132 34.0225 21.3637 35 20.1884 35H10.6265C7.10714 35 4.25185 32.0605 4.25185 28.4375V13.1592C4.25185 12.0586 3.45502 11.1221 2.39259 10.9854L1.86801 10.917C0.699332 10.7734 -0.124055 9.67969 0.0153896 8.47656C0.154834 7.27344 1.22391 6.42578 2.38595 6.57617L2.91052 6.64453C6.09783 7.05469 8.49494 9.84375 8.49494 13.1592V18.9902C10.7792 15.4561 14.6836 13.125 19.1193 13.125H19.1259ZM29.7503 14.9365C29.0862 15.1758 28.3691 15.3125 27.6254 15.3125C25.7396 15.3125 24.0397 14.4648 22.871 13.125C22.6253 12.8447 22.4062 12.5439 22.2136 12.2227C21.6027 11.2109 21.2508 10.0215 21.2508 8.75V0.731445C21.2508 0.328125 21.5629 0.00683594 21.9547 0H21.9679C22.1871 0 22.3929 0.109375 22.5257 0.287109V0.293945L23.3757 1.45605L25.1818 3.9375L25.5005 4.375H29.7503L30.069 3.9375L31.8751 1.45605L32.7251 0.293945V0.287109C32.8579 0.109375 33.0637 0 33.2829 0H33.2961C33.6879 0.00683594 34 0.328125 34 0.731445V8.75C34 9.93262 33.6946 11.0469 33.1633 12.0039C32.413 13.3574 31.1978 14.4102 29.7503 14.9365ZM26.563 8.75C26.563 8.45992 26.451 8.18172 26.2518 7.9766C26.0525 7.77148 25.7823 7.65625 25.5005 7.65625C25.2188 7.65625 24.9485 7.77148 24.7493 7.9766C24.55 8.18172 24.4381 8.45992 24.4381 8.75C24.4381 9.04008 24.55 9.31828 24.7493 9.5234C24.9485 9.72852 25.2188 9.84375 25.5005 9.84375C25.7823 9.84375 26.0525 9.72852 26.2518 9.5234C26.451 9.31828 26.563 9.04008 26.563 8.75ZM29.7503 9.84375C30.032 9.84375 30.3023 9.72852 30.5015 9.5234C30.7008 9.31828 30.8127 9.04008 30.8127 8.75C30.8127 8.45992 30.7008 8.18172 30.5015 7.9766C30.3023 7.77148 30.032 7.65625 29.7503 7.65625C29.4685 7.65625 29.1983 7.77148 28.999 7.9766C28.7998 8.18172 28.6878 8.45992 28.6878 8.75C28.6878 9.04008 28.7998 9.31828 28.999 9.5234C29.1983 9.72852 29.4685 9.84375 29.7503 9.84375Z" fill="black"/>
</svg>
