<svg width="59" height="59" viewBox="0 0 59 59" fill="none" xmlns="http://www.w3.org/2000/svg">
<circle cx="29.5" cy="29.5" r="28.5" stroke="black" stroke-width="2"/>
<path fill-rule="evenodd" clip-rule="evenodd" d="M36.5977 43.996C34.5782 43.9217 28.8552 43.1309 22.8614 37.1398C16.8691 31.1473 16.0796 25.4268 16.0038 23.4064C15.8917 20.3275 18.2504 17.3368 20.9752 16.1689C21.3034 16.0272 21.6627 15.9733 22.018 16.0124C22.3732 16.0514 22.7122 16.1822 23.0017 16.3918C25.2455 18.0266 26.7937 20.4999 28.1231 22.4446C28.4156 22.8719 28.5407 23.3918 28.4745 23.9053C28.4083 24.4188 28.1554 24.89 27.7641 25.2291L25.0281 27.2608C24.8959 27.3562 24.8029 27.4963 24.7662 27.6552C24.7296 27.814 24.7519 27.9808 24.829 28.1244C25.4488 29.2503 26.5511 30.9272 27.8132 32.1891C29.0767 33.451 30.8325 34.6259 32.0371 35.3157C32.1882 35.4005 32.366 35.4242 32.5339 35.3819C32.7019 35.3397 32.8473 35.2347 32.9403 35.0886L34.7213 32.3784C35.0487 31.9435 35.5318 31.6522 36.0692 31.5654C36.6067 31.4786 37.1569 31.6031 37.6046 31.9129C39.5777 33.2785 41.8804 34.7998 43.566 36.9576C43.7927 37.2491 43.9369 37.5961 43.9835 37.9623C44.0301 38.3286 43.9775 38.7007 43.8311 39.0397C42.6573 41.7779 39.6871 44.1096 36.5977 43.996Z" fill="black"/>
</svg>
