<svg width="103" height="86" viewBox="0 0 103 86" fill="none" xmlns="http://www.w3.org/2000/svg">
<path d="M91.1888 57.2663C91.3301 55.5263 90.439 54.2167 89.5794 52.9511C88.8314 51.8495 88.1254 50.8088 87.9716 49.4354C87.5541 45.6349 87.3974 43.3839 84.5155 42.1031C81.6336 40.8222 79.8545 42.2136 76.7501 44.4473C75.6259 45.2556 74.375 45.428 73.0543 45.6117C71.5386 45.8222 69.9726 46.0377 68.7753 47.3047C68.3283 47.7549 67.9689 48.2841 67.7153 48.8655C66.6293 51.309 67.6919 54.1623 69.8481 55.1206C72.0042 56.0789 75.3281 56.254 77.7541 57.3322C80.1802 58.4105 82.4979 60.7427 84.6811 61.713C86.8643 62.6833 89.6606 61.5452 90.7466 59.1017C91.0061 58.5225 91.156 57.9002 91.1888 57.2663Z" fill="#F8C301"/>
<path d="M70.9186 42.9545C72.7736 43.7789 75.1366 42.5139 76.1966 40.1289C77.2566 37.7439 76.6122 35.1422 74.7572 34.3178C72.9022 33.4933 70.5391 34.7584 69.4792 37.1434C68.4192 39.5283 69.0636 42.1301 70.9186 42.9545Z" fill="#F8C301"/>
<path d="M80.194 40.1821C82.049 41.0065 84.412 39.7415 85.472 37.3565C86.532 34.9715 85.8875 32.3698 84.0326 31.5454C82.1776 30.7209 79.8145 31.986 78.7546 34.371C77.6946 36.7559 78.339 39.3577 80.194 40.1821Z" fill="#F8C301"/>
<path d="M88.8307 44.0207C90.6857 44.8452 93.0488 43.5801 94.1087 41.1951C95.1687 38.8102 94.5243 36.2084 92.6693 35.384C90.8143 34.5595 88.4513 35.8246 87.3913 38.2096C86.3313 40.5946 86.9757 43.1963 88.8307 44.0207Z" fill="#F8C301"/>
<path d="M92.9889 52.7641C94.8439 53.5886 97.207 52.3235 98.2669 49.9385C99.3269 47.5536 98.6825 44.9518 96.8275 44.1274C94.9725 43.3029 92.6095 44.568 91.5495 46.953C90.4895 49.338 91.134 51.9397 92.9889 52.7641Z" fill="#F8C301"/>
<path d="M83.2641 15.9187C82.5618 14.7872 81.4213 14.3877 80.3201 14.0012C79.3618 13.6644 78.4567 13.3461 77.7396 12.5733C75.7603 10.431 74.6435 9.12109 72.2947 9.64202C69.9459 10.163 69.4853 11.8232 68.5936 14.6012C68.2704 15.6068 67.5811 16.2798 66.8542 16.9913C66.0198 17.8077 65.1568 18.6499 64.9967 19.9702C64.9267 20.449 64.9461 20.9366 65.0541 21.4083C65.4958 23.3998 67.4414 24.6685 69.1988 24.2787C70.9561 23.889 73.0746 22.4893 75.0519 22.0507C77.0292 21.6122 79.5086 21.9921 81.2879 21.5975C83.0672 21.2029 84.2667 19.2367 83.825 17.2452C83.7216 16.7722 83.5314 16.3225 83.2641 15.9187Z" fill="#F8C301"/>
<path d="M64.3396 16.3301C65.8514 15.9948 66.7275 14.1472 66.2964 12.2034C65.8653 10.2596 64.2903 8.95571 62.7784 9.29101C61.2666 9.62632 60.3905 11.4739 60.8216 13.4177C61.2527 15.3615 62.8278 16.6654 64.3396 16.3301Z" fill="#F8C301"/>
<path d="M68.7732 10.4231C70.285 10.0878 71.1611 8.24024 70.73 6.29645C70.2989 4.35266 68.7239 3.04873 67.212 3.38403C65.7002 3.71933 64.8241 5.5669 65.2552 7.51069C65.6863 9.45448 67.2614 10.7584 68.7732 10.4231Z" fill="#F8C301"/>
<path d="M75.8123 8.86201C77.3241 8.52671 78.2002 6.67914 77.7691 4.73535C77.338 2.79157 75.7629 1.48763 74.2511 1.82293C72.7393 2.15824 71.8632 4.0058 72.2943 5.94959C72.7254 7.89338 74.3004 9.19732 75.8123 8.86201Z" fill="#F8C301"/>
<path d="M82.3357 12.341C83.8475 12.0057 84.7236 10.1581 84.2925 8.2143C83.8614 6.27051 82.2864 4.96657 80.7745 5.30188C79.2627 5.63718 78.3866 7.48475 78.8177 9.42854C79.2488 11.3723 80.8239 12.6763 82.3357 12.341Z" fill="#F8C301"/>
<g clip-path="url(#clip0_267_3864)">
<path d="M21.1429 52.4497C8.91964 55.9675 0 67.0558 0 80.1866C0 82.8452 2.19688 85.0013 4.9058 85.0013H69.0942C71.8031 85.0013 74 82.8452 74 80.1866C74 67.0558 65.0804 55.9675 52.8571 52.4497V60.6849C57.4161 61.8359 60.7857 65.9048 60.7857 70.7357V77.22C60.7857 78.6466 59.5964 79.8138 58.1429 79.8138H55.5C54.0464 79.8138 52.8571 78.6466 52.8571 77.22C52.8571 75.7935 54.0464 74.6263 55.5 74.6263V70.7357C55.5 67.8663 53.138 65.5482 50.2143 65.5482C47.2906 65.5482 44.9286 67.8663 44.9286 70.7357V74.6263C46.3821 74.6263 47.5714 75.7935 47.5714 77.22C47.5714 78.6466 46.3821 79.8138 44.9286 79.8138H42.2857C40.8321 79.8138 39.6429 78.6466 39.6429 77.22V70.7357C39.6429 65.9048 43.0125 61.8359 47.5714 60.6849V51.4284C46.5804 51.3312 45.5728 51.2825 44.5487 51.2825H29.4513C28.4272 51.2825 27.4196 51.3312 26.4286 51.4284V62.0304C30.2442 63.1489 33.0357 66.6181 33.0357 70.7357C33.0357 75.7448 28.8897 79.8138 23.7857 79.8138C18.6817 79.8138 14.5357 75.7448 14.5357 70.7357C14.5357 66.6181 17.3272 63.1489 21.1429 62.0304V52.4497ZM23.7857 74.6263C24.8371 74.6263 25.8454 74.2164 26.5889 73.4867C27.3323 72.7571 27.75 71.7675 27.75 70.7357C27.75 69.7038 27.3323 68.7142 26.5889 67.9846C25.8454 67.2549 24.8371 66.845 23.7857 66.845C22.7343 66.845 21.726 67.2549 20.9825 67.9846C20.2391 68.7142 19.8214 69.7038 19.8214 70.7357C19.8214 71.7675 20.2391 72.7571 20.9825 73.4867C21.726 74.2164 22.7343 74.6263 23.7857 74.6263Z" fill="#F8C301"/>
<circle cx="37.5" cy="34.5013" r="20.5" fill="#F8C301"/>
</g>
<defs>
<clipPath id="clip0_267_3864">
<rect width="74" height="83" fill="white" transform="translate(0 2.00128)"/>
</clipPath>
</defs>
</svg>
