<svg width="48" height="47" viewBox="0 0 48 47" fill="none" xmlns="http://www.w3.org/2000/svg">
<g clip-path="url(#clip0_267_3820)">
<path d="M25.177 0H3C1.34315 0 0 1.34315 0 3V25.1717C0 26.8285 1.34314 28.1717 3 28.1717H25.177C26.8338 28.1717 28.177 26.8285 28.177 25.1717V3C28.177 1.34315 26.8338 0 25.177 0Z" fill="#F8C301"/>
<path d="M6.65515 21.8013H22.0888V6.229H6.65515V21.8013ZM24.2127 23.7832H4.67285V4.24707H24.0711V23.7832H24.2127Z" fill="black"/>
<path d="M30.4423 21.8013H45.8759V6.229H30.4423V21.8013ZM47.9998 23.7832H28.46V4.24707H47.8582V23.7832H47.9998Z" fill="black"/>
<path d="M6.65515 45.0181H22.0888V29.4458H6.65515V45.0181ZM24.2127 47H4.67285V27.4639H24.0711V47H24.2127Z" fill="black"/>
<path d="M30.4423 45.0181H45.8759V29.4458H30.4423V45.0181ZM47.9998 47H28.46V27.4639H47.8582V47H47.9998Z" fill="black"/>
<path d="M13.7342 13.1656V9.48486H15.1501V13.1656H18.6899V14.5812H15.1501V18.262H13.7342V14.5812H10.1943V13.1656H13.7342Z" fill="black"/>
<path d="M36.248 14.2982V12.741H40.2126V14.1566H36.248V14.2982Z" fill="black"/>
<path d="M42.7612 35.25V36.6657H34.2656V35.25H42.7612ZM42.7612 38.6476V40.0633H34.2656V38.6476H42.7612Z" fill="black"/>
<path d="M9.62793 38.223V36.8073H19.8226V38.223H9.62793ZM15.9996 33.8344C15.9996 34.5422 15.4332 35.1085 14.7253 35.1085C14.0173 35.1085 13.4509 34.5422 13.4509 33.8344C13.4509 33.1266 14.0173 32.5603 14.7253 32.5603C15.4332 32.5603 15.9996 33.1266 15.9996 33.8344ZM15.9996 41.0543C15.9996 41.7621 15.4332 42.3284 14.7253 42.3284C14.0173 42.3284 13.4509 41.7621 13.4509 41.0543C13.4509 40.3464 14.0173 39.7802 14.7253 39.7802C15.4332 39.9217 15.9996 40.488 15.9996 41.0543Z" fill="black"/>
</g>
<defs>
<clipPath id="clip0_267_3820">
<rect width="48" height="47" fill="white"/>
</clipPath>
</defs>
</svg>
