<svg width="47" height="47" viewBox="0 0 47 47" fill="none" xmlns="http://www.w3.org/2000/svg">
<g clip-path="url(#clip0_267_3815)">
<path d="M9.61716 46.9999C7.13531 46.9999 4.65347 46.0661 2.79208 44.1986C-0.930693 40.4635 -0.930693 34.3939 2.79208 30.6588L11.1683 22.2549L12.7195 23.8112L4.34324 32.2151C1.39604 35.1721 1.39604 39.841 4.34324 42.7979C7.29043 45.7549 11.9439 45.7549 14.8911 42.7979L29.0066 28.6357C30.4026 27.235 31.1782 25.3674 31.1782 23.3443C31.1782 21.3211 30.4026 19.4535 29.0066 18.0529L30.5578 16.4966C32.4191 18.3641 33.3498 20.6986 33.3498 23.3443C33.3498 25.99 32.4191 28.3244 30.5578 30.1919L16.4422 44.3542C14.4257 46.0661 12.099 46.9999 9.61716 46.9999Z" fill="black"/>
<path d="M16.5977 30.5033C12.875 26.7682 12.875 20.6987 16.5977 16.9636L30.7133 2.80132C34.436 -0.933775 40.4855 -0.933775 44.2083 2.80132C47.9311 6.53642 47.9311 12.606 44.2083 16.3411L36.7628 23.8113L35.2116 22.255L42.6572 14.7848C45.6043 11.8278 45.6043 7.15894 42.6572 4.20199C39.71 1.24503 35.0565 1.24503 32.1093 4.20199L17.9938 18.3642C15.0466 21.3212 15.0466 25.9901 17.9938 28.947L16.5977 30.5033Z" fill="black"/>
<path d="M29.4724 23.8114C29.4724 27.0796 26.8354 29.7253 23.578 29.7253C20.3206 29.7253 17.6836 27.0796 17.6836 23.8114C17.6836 20.5432 20.3206 17.8975 23.578 17.8975C26.8354 17.8975 29.4724 20.5432 29.4724 23.8114Z" fill="#F8C301"/>
</g>
<defs>
<clipPath id="clip0_267_3815">
<rect width="47" height="47" fill="white"/>
</clipPath>
</defs>
</svg>
