<svg width="79" height="52" viewBox="0 0 79 52" fill="none" xmlns="http://www.w3.org/2000/svg">
<g clip-path="url(#clip0_267_3769)">
<path d="M20.7012 43.9171C25.3816 48.5831 32.97 48.5831 37.6504 43.9171C42.3308 39.2511 42.3308 31.6859 37.6504 27.0199C32.97 22.3539 25.3816 22.3539 20.7012 27.0199C16.0208 31.6859 16.0208 39.2511 20.7012 43.9171Z" fill="#F8C301"/>
<path d="M33.0859 14.9773H45.7462V2.35599H33.0859V14.9773ZM48.2782 17.3333H30.7227V0H48.1094V17.3333H48.2782Z" fill="black"/>
<path d="M2.36325 41.5665H15.0235V28.9451H2.36325V41.5665ZM17.3868 43.9224H0V26.5891H17.3868V43.9224Z" fill="black"/>
<path d="M22.957 41.5662H35.6173V28.9449H22.957V41.5662ZM37.9805 43.9222H20.5938V26.5889H37.9805V43.9222Z" fill="black"/>
<path d="M43.3828 41.5662H56.043V28.9449H43.3828V41.5662ZM58.5751 43.9222H41.0195V26.5889H58.4063V43.9222H58.5751Z" fill="black"/>
<path d="M63.9765 41.5665H76.6368V28.9451H63.9765V41.5665ZM79 43.9224H61.6133V26.5891H79V43.9224Z" fill="black"/>
<path d="M69.547 28.6084L38.8248 17.3333L8.77775 28.4401L8.10254 26.7573L38.8248 15.4822L70.2222 26.9255L69.547 28.6084Z" fill="black"/>
</g>
<defs>
<clipPath id="clip0_267_3769">
<rect width="79" height="52" fill="white"/>
</clipPath>
</defs>
</svg>
