<svg width="58" height="47" viewBox="0 0 58 47" fill="none" xmlns="http://www.w3.org/2000/svg">
<g clip-path="url(#clip0_267_3795)">
<path d="M33.4789 8.72168H19.0689C12.7357 8.72168 7.60156 13.8558 7.60156 20.189C7.60156 26.5223 12.7357 31.6564 19.0689 31.6564H33.4789C39.8122 31.6564 44.9463 26.5223 44.9463 20.189C44.9463 13.8558 39.8122 8.72168 33.4789 8.72168Z" fill="#F8C301"/>
<path d="M2.31339 9.52921H0V0H10.906V2.26117H2.31339V9.52921Z" fill="black"/>
<path d="M9.74929 39.8935H0V29.3953H2.31339V37.6324H9.74929V39.8935Z" fill="black"/>
<path d="M52.5469 10.6598H50.2335V2.26117H42.9629V0H52.5469V10.6598Z" fill="black"/>
<path d="M35.8578 13.0826C28.5871 13.0826 22.8036 18.897 22.8036 25.842C22.8036 32.9485 28.7523 38.6015 35.8578 38.6015C43.1284 38.6015 48.9119 32.787 48.9119 25.842C48.9119 18.897 42.9632 13.0826 35.8578 13.0826ZM35.8578 41.0241C27.4304 41.0241 20.4902 34.2406 20.4902 26.0035C20.4902 17.7664 27.4304 10.9829 35.8578 10.9829C44.2851 10.9829 51.2253 17.7664 51.2253 26.0035C51.2253 34.2406 44.2851 41.0241 35.8578 41.0241Z" fill="black"/>
<path d="M47.0997 34.8862L45.4639 36.4851L56.3302 47.1062L57.966 45.5073L47.0997 34.8862Z" fill="black"/>
</g>
<defs>
<clipPath id="clip0_267_3795">
<rect width="58" height="47" fill="white"/>
</clipPath>
</defs>
</svg>
