<svg width="60" height="50" viewBox="0 0 60 50" fill="none" xmlns="http://www.w3.org/2000/svg">
<g clip-path="url(#clip0_267_3802)">
<path d="M31.0793 28.3423C36.4021 33.5649 45.0322 33.5649 50.355 28.3423C55.6779 23.1196 55.6779 14.6519 50.355 9.42923C45.0322 4.20654 36.4021 4.20654 31.0793 9.42923C25.7564 14.6519 25.7564 23.1196 31.0793 28.3423Z" fill="#F8C301"/>
<path d="M7.67171 48.1183H47.3977V12.6344H7.67171V48.1183ZM49.3156 50H5.75391V10.7527H49.3156V50Z" fill="black"/>
<path d="M48.3558 40.7258H6.71191V42.6076H48.3558V40.7258Z" fill="black"/>
<path d="M48.3558 33.199H6.71191V35.0807H48.3558V33.199Z" fill="black"/>
<path d="M48.3558 25.6721H6.71191V27.5538H48.3558V25.6721Z" fill="black"/>
<path d="M48.3558 18.2795H6.71191V20.1613H48.3558V18.2795Z" fill="black"/>
<path d="M49.3153 11.6936H47.3975V49.0592H49.3153V11.6936Z" fill="black"/>
<path d="M38.9041 11.6936H36.9863V49.0592H38.9041V11.6936Z" fill="black"/>
<path d="M28.493 11.6936H26.5752V49.0592H28.493V11.6936Z" fill="black"/>
<path d="M18.0819 11.6936H16.1641V49.0592H18.0819V11.6936Z" fill="black"/>
<path d="M3.28767 43.6828C2.73973 43.6828 2.32877 43.5484 1.91781 43.1452L0.547945 41.8011C0.136986 41.3979 0 40.9946 0 40.457C0 39.9194 0.136986 39.5161 0.547945 39.1129L15.8904 24.0592C16.3014 23.6559 16.7123 23.5215 17.2603 23.5215C17.5342 23.5215 17.9452 23.6559 18.2192 23.7903L29.863 30.5108L50.6849 14.3817C51.0959 14.1129 51.5069 13.9785 51.9178 13.9785C52.4658 13.9785 53.0137 14.2473 53.4247 14.6506L54.6575 16.1291C54.9315 16.5323 55.0685 17.0699 55.0685 17.4731C55.0685 18.0108 54.7945 18.414 54.3836 18.6828L31.3699 36.4248C30.9589 36.6936 30.5479 36.828 30.137 36.828C29.863 36.828 29.4521 36.6936 29.1781 36.5592L17.8082 30.1075L4.65753 43.1452C4.24658 43.5484 3.83562 43.6828 3.28767 43.6828Z" fill="#E9F5EB"/>
<path d="M3.28783 41.8011L1.91797 40.457L17.2604 25.4032L30.0002 32.6613L51.918 15.7258L53.1508 17.2043L30.1371 34.9463L17.5344 27.6882L3.28783 41.8011Z" fill="black"/>
</g>
<defs>
<clipPath id="clip0_267_3802">
<rect width="60" height="50" fill="white"/>
</clipPath>
</defs>
</svg>
