<svg width="63" height="47" viewBox="0 0 63 47" fill="none" xmlns="http://www.w3.org/2000/svg">
<g clip-path="url(#clip0_267_3777)">
<path d="M8.84526 16.1753H23.1211V2.13636H8.84526V16.1753ZM25.2935 18.3117H6.67285V0H25.2935V18.3117Z" fill="black"/>
<path d="M13.8101 11.4447H18.3101V7.01942H13.8101V11.4447ZM20.3274 13.5811H11.6377V4.88306H20.4825V13.5811H20.3274Z" fill="black"/>
<path d="M38.1725 16.1753H52.4484V2.13636H38.1725V16.1753ZM54.776 18.3117H36.1553V0H54.776V18.3117Z" fill="black"/>
<path d="M43.1382 11.4447H47.6382V7.01942H43.1382V11.4447ZM49.8106 13.5811H40.9658V4.88306H49.8106V13.5811Z" fill="black"/>
<path d="M38.1725 44.8636H52.4484V30.8246H38.1725V44.8636ZM54.776 46.9999H36.1553V28.6882H54.776V46.9999Z" fill="black"/>
<path d="M43.1382 39.9806H47.6382V35.5553H43.1382V39.9806ZM49.8106 42.117H40.9658V33.4189H49.8106V42.117Z" fill="black"/>
<path d="M8.84526 44.8638H23.1211V30.8248H8.84526V44.8638ZM25.2935 47.0002H6.67285V28.6885H25.2935V47.0002Z" fill="black"/>
<path d="M13.8101 39.9806H18.3101V35.5553H13.8101V39.9806ZM20.3274 42.117H11.6377V33.4189H20.4825V42.117H20.3274Z" fill="black"/>
<path d="M29.3277 5.49351H32.7415V2.13636H29.3277V5.49351ZM34.9139 7.62987H27.1553V0H34.9139V7.62987Z" fill="black"/>
<path d="M29.3277 42.5747H32.7415V36.3182H29.3277V42.5747ZM34.9139 44.7111H27.1553V34.1819H34.9139V44.7111Z" fill="black"/>
<path d="M58.6851 19.6851H10.4894C5.89631 19.6851 2.17285 23.4085 2.17285 28.0016V31.8182C2.17285 34.3035 4.18757 36.3182 6.67285 36.3182V28.5357H25.2935V36.3182H27.1556V34.1818H34.9142V36.3182H36.0004V28.5357H54.6211V36.3182C57.174 35.8389 59.3425 34.1653 60.4532 31.8173L62.5686 27.3454L58.6851 19.6851ZM52.6039 30.6721H38.328V36.3182H41.1211V33.4188H49.966V36.3182H52.7591V30.6721H52.6039ZM23.1211 30.6721H8.84526V36.3182H11.6384V33.4188H20.4832V36.3182H23.2763V30.6721H23.1211ZM47.6384 35.5552H43.1384V36.3182H47.6384V35.5552ZM18.1556 35.5552H13.8108V36.3182H18.3108V35.5552H18.1556Z" fill="#F8C301"/>
<path d="M54.7759 28.5356H36V36.3181H38.1724V30.672H52.6035V36.3181H54.7759V28.5356Z" fill="black"/>
<path d="M49.8106 33.4189H40.9658V36.3183H43.1382V35.5553H47.6382V36.3183H49.8106V33.4189Z" fill="black"/>
<path d="M25.2935 28.5356H6.67285V36.3181H8.84526V30.672H23.1211V36.3181H25.2935V28.5356Z" fill="black"/>
<path d="M20.3274 33.4189H11.6377V36.3183H13.8101V35.5553H18.1549V36.3183H20.3274V33.4189Z" fill="black"/>
<path d="M34.9139 34.3345H27.1553V36.4708H34.9139V34.3345Z" fill="black"/>
<path d="M2.17241 28.0015C2.17241 32.5946 5.89586 36.3181 10.489 36.3181H52.511C57.1041 36.3181 60.8276 32.5946 60.8276 28.0015C60.8276 23.4084 57.1041 19.6849 52.511 19.6849H10.489C5.89587 19.6849 2.17241 23.4084 2.17241 28.0015ZM63 28.0015C63 33.7745 58.3201 38.4544 52.5471 38.4544H10.4529C4.67993 38.4544 0 33.7745 0 28.0015C0 22.2285 4.67993 17.5486 10.4529 17.5486H52.5471C58.3201 17.5486 63 22.2285 63 28.0015Z" fill="#F8C301"/>
</g>
<defs>
<clipPath id="clip0_267_3777">
<rect width="63" height="47" fill="white"/>
</clipPath>
</defs>
</svg>
