<svg width="35" height="35" viewBox="0 0 35 35" fill="none" xmlns="http://www.w3.org/2000/svg">
<circle cx="17.5" cy="17.5" r="16.75" stroke="white" stroke-width="1.5"/>
<path d="M19.4091 16.1625V14.675C19.9341 14.4708 20.4712 14.3177 21.0204 14.2156C21.5689 14.1135 22.1455 14.0625 22.75 14.0625C23.1636 14.0625 23.5693 14.0917 23.967 14.15C24.3648 14.2083 24.7545 14.2812 25.1364 14.3687V15.7687C24.7545 15.6375 24.3689 15.5392 23.9795 15.4739C23.5894 15.408 23.1795 15.375 22.75 15.375C22.1455 15.375 21.5648 15.4444 21.008 15.5833C20.4511 15.7215 19.9182 15.9146 19.4091 16.1625ZM19.4091 20.975V19.4875C19.9341 19.2833 20.4712 19.1302 21.0204 19.0281C21.5689 18.926 22.1455 18.875 22.75 18.875C23.1636 18.875 23.5693 18.9042 23.967 18.9625C24.3648 19.0208 24.7545 19.0938 25.1364 19.1813V20.5813C24.7545 20.45 24.3689 20.3517 23.9795 20.2864C23.5894 20.2205 23.1795 20.1875 22.75 20.1875C22.1455 20.1875 21.5648 20.2531 21.008 20.3844C20.4511 20.5156 19.9182 20.7125 19.4091 20.975ZM19.4091 18.5687V17.0812C19.9341 16.8771 20.4712 16.724 21.0204 16.6219C21.5689 16.5198 22.1455 16.4688 22.75 16.4688C23.1636 16.4688 23.5693 16.4979 23.967 16.5563C24.3648 16.6146 24.7545 16.6875 25.1364 16.775V18.175C24.7545 18.0437 24.3689 17.9455 23.9795 17.8801C23.5894 17.8142 23.1795 17.7812 22.75 17.7812C22.1455 17.7812 21.5648 17.8507 21.008 17.9895C20.4511 18.1277 19.9182 18.3208 19.4091 18.5687ZM18.4545 22.4187C19.1545 22.1125 19.8587 21.8827 20.567 21.7292C21.2746 21.5764 22.0023 21.5 22.75 21.5C23.3227 21.5 23.8837 21.5437 24.4329 21.6312C24.9814 21.7188 25.5341 21.85 26.0909 22.025V13.3625C25.5659 13.1583 25.0212 13.0052 24.4567 12.9031C23.8916 12.801 23.3227 12.75 22.75 12.75C22.0023 12.75 21.2625 12.8375 20.5307 13.0125C19.7989 13.1875 19.1068 13.45 18.4545 13.8V22.4187ZM17.5 25C16.7364 24.4458 15.9091 24.0156 15.0182 23.7094C14.1273 23.4031 13.2045 23.25 12.25 23.25C11.5818 23.25 10.9257 23.3302 10.2817 23.4906C9.63709 23.651 9.02045 23.8771 8.43182 24.1687C8.09773 24.3292 7.77573 24.3219 7.46582 24.1469C7.15527 23.9719 7 23.7167 7 23.3812V12.8375C7 12.6771 7.04391 12.524 7.13173 12.3781C7.21891 12.2323 7.35 12.1229 7.525 12.05C8.27273 11.7146 9.0405 11.4556 9.82832 11.273C10.6155 11.091 11.4227 11 12.25 11C13.1727 11 14.0757 11.1094 14.959 11.3281C15.8416 11.5469 16.6886 11.875 17.5 12.3125C18.3114 11.875 19.1587 11.5469 20.042 11.3281C20.9246 11.1094 21.8273 11 22.75 11C23.5773 11 24.3848 11.091 25.1726 11.273C25.9598 11.4556 26.7273 11.7146 27.475 12.05C27.65 12.1229 27.7814 12.2323 27.8692 12.3781C27.9564 12.524 28 12.6771 28 12.8375V23.3812C28 23.7167 27.845 23.9719 27.5351 24.1469C27.2246 24.3219 26.9023 24.3292 26.5682 24.1687C25.9795 23.8771 25.3629 23.651 24.7183 23.4906C24.0743 23.3302 23.4182 23.25 22.75 23.25C21.7955 23.25 20.8727 23.4031 19.9818 23.7094C19.0909 24.0156 18.2636 24.4458 17.5 25Z" fill="white"/>
</svg>
