<svg width="24" height="28" viewBox="0 0 24 28" fill="none" xmlns="http://www.w3.org/2000/svg">
<path d="M2.94531 4.88818L4.16034 24.3287C4.21806 25.452 5.03517 26.2727 6.10439 26.2727H17.2827C18.3562 26.2727 19.1581 25.452 19.2267 24.3287L20.4418 4.88818" stroke="black" stroke-width="2" stroke-linecap="round" stroke-linejoin="round"/>
<path d="M1 4.88818H22.3845H1Z" fill="#F8C301"/>
<path d="M1 4.88818H22.3845" stroke="black" stroke-width="2" stroke-miterlimit="10" stroke-linecap="round"/>
<path d="M7.80437 4.8881V2.45804C7.80381 2.26641 7.84114 2.07656 7.91421 1.89941C7.98729 1.72226 8.09467 1.56131 8.23017 1.4258C8.36567 1.2903 8.52663 1.18292 8.70378 1.10985C8.88093 1.03677 9.07078 0.999445 9.26241 1.00001H14.1225C14.3142 0.999445 14.504 1.03677 14.6812 1.10985C14.8583 1.18292 15.0193 1.2903 15.1548 1.4258C15.2903 1.56131 15.3976 1.72226 15.4707 1.89941C15.5438 2.07656 15.5811 2.26641 15.5806 2.45804V4.8881M11.6925 8.7762V22.3845M7.31836 8.7762L7.80437 22.3845M16.0666 8.7762L15.5806 22.3845" stroke="black" stroke-width="2" stroke-linecap="round" stroke-linejoin="round"/>
</svg>
