<svg width="38" height="36" viewBox="0 0 38 36" fill="none" xmlns="http://www.w3.org/2000/svg">
<path d="M19.7466 14.4013L30.875 18.4173V34.8001C30.875 35.1183 30.7499 35.4235 30.5272 35.6486C30.3045 35.8736 30.0024 36 29.6875 36H24.9375C24.6226 36 24.3205 35.8736 24.0978 35.6486C23.8751 35.4235 23.75 35.1183 23.75 34.8001V26.4006H11.875V34.8001C11.875 35.1183 11.7499 35.4235 11.5272 35.6486C11.3045 35.8736 11.0024 36 10.6875 36H5.9375C5.62256 36 5.32051 35.8736 5.09781 35.6486C4.87511 35.4235 4.75 35.1183 4.75 34.8001V18.7578C1.99203 17.7641 0 15.1257 0 12.0014C0 11.3649 0.250222 10.7545 0.695621 10.3045C1.14102 9.85441 1.74511 9.60157 2.375 9.60157C3.00489 9.60157 3.60898 9.85441 4.05438 10.3045C4.49978 10.7545 4.75 11.3649 4.75 12.0014C4.75118 12.6375 5.00178 13.2473 5.44692 13.6971C5.89207 14.1469 6.49547 14.4001 7.125 14.4013H19.7466ZM38 6.00179V8.40164C38 9.67461 37.4996 10.8954 36.6088 11.7956C35.718 12.6957 34.5098 13.2014 33.25 13.2014H30.875V15.8697L21.375 12.4417V1.20207C21.375 0.133386 22.653 -0.402083 23.4019 0.353872L25.4266 2.402H29.407C30.2167 2.402 31.1696 2.99597 31.5311 3.72867L32.0625 4.80186H36.8125C37.1274 4.80186 37.4295 4.92828 37.6522 5.15331C37.8749 5.37834 38 5.68355 38 6.00179ZM29.6875 6.00179C29.6875 5.76446 29.6179 5.53247 29.4874 5.33514C29.3569 5.13781 29.1714 4.98402 28.9544 4.8932C28.7374 4.80238 28.4987 4.77861 28.2683 4.82491C28.038 4.87121 27.8264 4.9855 27.6603 5.15331C27.4942 5.32112 27.3811 5.53493 27.3353 5.76769C27.2895 6.00045 27.313 6.24172 27.4029 6.46098C27.4928 6.68024 27.645 6.86764 27.8403 6.99949C28.0355 7.13134 28.2651 7.20171 28.5 7.20171C28.8149 7.20171 29.117 7.07529 29.3397 6.85026C29.5624 6.62523 29.6875 6.32003 29.6875 6.00179Z" fill="black"/>
</svg>
