<svg width="55" height="79" viewBox="0 0 55 79" fill="none" xmlns="http://www.w3.org/2000/svg">
<path d="M15.6889 29.3213L15.5602 29.3494L15.2749 29.4536L15.0151 29.513V29.3347L14.9482 28.889L14.8367 28.733L14.7044 28.6006L14.7037 28.5628L14.1807 27.5013L14.0064 27.2364L13.5982 26.9911L13.4489 26.9485L13.3077 26.8702L13.2333 26.7605L13.1908 26.6642L13.1346 26.5179L13.0405 26.2882L12.8093 25.9012L12.4001 25.5964L12.331 25.5543L12.3465 25.2587L12.0847 25.0341L11.8602 24.8471V24.4729L12.0098 24.1363L12.1221 23.837L12.1595 23.5377L12.3091 23.1636L12.4962 22.9016V22.5276L12.3091 22.4153L12.1457 22.3686L12.1368 22.3137L11.935 22.303L11.6357 22.0038V21.6296V21.2555L11.7854 20.9561L11.935 20.6943L12.0591 20.2395L12.0199 20.1797L11.9832 20.0989L11.9666 19.9745L11.8236 19.4889L11.7248 19.2558L11.8329 19.2119L11.9046 19.1288L11.9749 18.784L11.964 18.5466L11.8904 18.3239L11.8803 18.2185L11.8821 18.0777L11.9358 18.0505L12.0122 17.9563L12.3439 17.1806L12.3676 17.0852L12.3783 16.9745L12.3788 16.8184L12.3865 16.6848L12.4409 16.487L12.4799 16.4057L12.7567 16.0653L12.9512 15.8676L12.9802 15.8281L13.0429 15.6992L13.089 15.552L13.1577 15.2236L13.1807 14.9648L13.1654 14.8245L13.1771 14.7338L13.244 14.4726L13.27 14.3807L13.3409 14.3054L13.4604 14.2654L13.5539 14.2748L13.6307 14.3372L13.6668 14.4519L13.6543 14.7279L13.6922 14.7403L13.9713 14.5384L14.0175 14.4525L13.9722 14.288L13.8774 14.2003L13.8252 14.0653L13.8903 13.9542L13.995 13.8688L14.1417 13.784L14.2481 13.707L14.4575 13.4498L14.597 13.1996L15.0615 12.7073L15.3416 12.478L15.5517 12.4032L15.7076 13.0839L15.7254 13.511L15.736 13.6447L15.7781 13.7746L15.9441 14.0441L16.0873 14.3319L16.1216 14.4407L16.3031 15.2559L16.2789 15.4354L16.267 15.6038L16.2765 15.7097L16.3025 15.8004L16.3605 15.9158L16.5225 16.1242L16.5698 16.1948L16.6054 16.2737L16.6266 16.3692L16.6644 16.9928L16.623 17.0782L16.5604 17.8203L16.5539 18.0429L16.5816 18.1372L16.6054 18.2786L16.5698 18.5201L16.5402 18.6439L16.2676 19.2178L16.1636 19.3822L16.0837 19.4465L15.995 19.5407L15.9182 19.641L15.8412 19.7589L15.7667 19.9415L15.7076 20.1479L15.684 20.3943L15.6922 20.5239L15.7264 20.7221L15.4518 21.0311V21.3303L15.8633 21.667L15.8923 21.6815L15.936 21.9193L15.9773 22.0432L16.2339 22.5966L16.2765 22.6521L16.2232 22.678L16.1169 22.7665L16.021 22.8933L15.9714 22.9789L15.9477 23.1029L15.9093 23.9965L15.9678 24.15L16.0305 24.2858L16.4728 25.1303L16.6491 25.3275L16.7616 25.3762L16.8803 25.4061L17.0733 25.4454L17.26 25.4889L17.4257 25.5298L17.8073 25.6641L18.0161 25.8827L18.1218 26.0543L18.1741 26.1772L18.2553 26.3746L18.3239 26.6517L18.2322 26.8256L18.0778 26.9521L17.9205 27.0496L17.82 27.1252L17.7372 27.2258L17.6692 27.3611L17.6338 27.4818L17.5918 27.6491L17.5468 27.7461L17.5095 27.7674V27.9523L17.285 28.2142L17.0605 28.3264L16.7613 28.102L16.3123 28.0645L16.0878 28.102L15.8614 28.2935L15.8058 28.7179L15.7372 28.8652L15.665 29.0712L15.658 29.2298L15.6889 29.3213Z" fill="black"/>
<path d="M17.4341 35.5811L17.615 35.9101L17.9033 35.8461L17.8673 36.0764V36.4302L18.1616 36.6112L18.1466 37.1661L18.1839 37.2329L18.4122 37.6213L18.5309 37.7713L19.0084 37.993L19.4319 38.2827L19.9891 38.5947L20.3233 38.8176L20.3011 39.1741L20.1673 39.3301L19.9445 39.3747L19.6297 39.3965L19.6067 39.4283L19.4399 39.8022L19.1921 40.3636L18.9862 40.3998L18.9416 40.6228L18.8747 40.9794L19.0102 40.9579L19.2313 41.0685L19.4987 41.2245L19.6994 41.5589L19.7661 41.8709L19.7885 42.3834L19.6325 42.584L19.4542 42.7622L19.5433 43.052L19.4765 43.3194L19.4096 43.4754L19.2928 43.5653V43.5895L19.1172 43.6438L18.4672 43.9072L18.3856 43.9759L18.3241 44.1106L18.3175 44.2591L18.291 44.3838L18.2407 44.4861L18.1603 44.5852L17.9705 44.7843L17.1993 45.4508L16.8646 45.574L16.4956 45.5764L16.4211 45.1244L16.4717 44.936L16.4453 44.8386L16.1567 44.6438L16.0947 44.3727L16.1335 44.2331L16.2449 44.0772L16.4455 43.9435L16.4678 43.6538L16.2672 43.5646L15.9998 43.6091L15.8661 43.7652L15.6877 43.9211L15.6892 43.9311L15.6641 43.9398L15.6398 44.1849L15.595 44.5685L15.521 44.7535L15.1922 44.9906L15.1899 44.9486L15.1029 44.7382L14.9852 44.5888L14.7078 44.1802L14.4477 43.7406L13.991 42.7364L13.7262 42.0586L13.654 41.8094L13.7002 41.6031L13.6949 41.4808L13.3001 40.9887L13.1348 40.722L13.0343 40.3126L13.0177 39.9011L12.8711 39.6225L12.6771 39.4819L12.5565 39.0831L12.5268 38.8069L12.2963 38.5677L12.0192 38.3654L11.917 37.9251H11.9485L12.0884 37.895L12.1949 37.6394L12.1674 37.4893L12.1845 37.3287L12.2962 37.1414L12.4004 37.0368L12.485 37.0041L13.0804 36.8097L13.6606 36.6064L13.7848 36.3733L13.7818 36.2738L14.0928 35.4231L14.2469 35.0877L14.5222 34.8425L14.5873 34.7867L14.7304 34.6953L14.8156 34.6633L14.9675 34.5623L15.3099 34.0662L16.1343 33.9072L16.2289 33.919L16.2501 34.0448L16.3413 34.3166L16.379 34.3949L16.469 34.4864L16.6819 34.687L16.8332 34.7629L16.9196 34.7986L17.4341 35.5811Z" fill="black"/>
<path d="M36.8036 62.6684L36.5593 62.6195L36.2262 62.5905L35.9185 62.4125L35.8524 62.4904L35.757 62.419L35.4672 62.4635L34.9992 62.6418L34.6203 62.6641L34.13 62.8647L33.9517 63.0653L33.7207 63.1868L33.6994 63.1657L33.6592 63.086L33.5953 62.7959L33.5061 62.6418L33.5506 62.2405L33.4838 61.8618L33.3054 61.5274L33.4838 61.2378L33.5952 61.0594L33.7289 60.8143V60.6116L33.6651 60.5161L33.4724 60.2586L33.3978 60.0914L33.3481 59.9259L33.0927 59.2107L32.8502 58.7332L32.8864 58.6291L33.0371 58.6067L33.0942 58.5387L32.8688 58.1809L32.7367 58.13L32.6492 58.0963L32.5741 57.933L32.5356 57.8182L32.4315 57.1111L32.4174 57.006L32.4043 56.8713L32.4889 56.4769L32.6006 56.2271L32.684 56.1957L32.7982 56.2609L32.8872 56.4245L33.9626 57.2115L34.0024 57.2187L34.275 57.1816L34.6537 57.0701L34.7232 56.8224L34.79 56.9069L35.0211 57.0781L35.5118 57.0925L35.9996 57.1056L36.1381 57.0495L36.4392 57.035L36.854 57.1874L37.0028 57.2657L37.6604 57.6925L38.5852 58.1595L39.1081 58.3419L39.3576 58.5015L39.6013 58.7399L39.6486 58.8137L39.7634 59.03L39.9171 59.3258L39.9454 59.4166L39.9597 59.5219L39.9495 60.0792L39.9171 60.244L39.8041 60.6126L39.7325 60.7471L39.638 60.8029L39.567 60.8532L39.2588 61.1782L39.2128 61.2553L39.1849 61.3802L39.1222 61.4676L38.894 61.572L38.6421 61.6921L38.3 61.8719L38.1803 62.009L38.1395 62.1159L38.1672 62.2064L38.2363 62.3315L38.2423 62.5022L38.221 62.6054L37.9762 62.6576L37.6792 62.711L37.3074 62.671L37.1548 62.5781L37.0199 62.5313L36.927 62.5404L36.8036 62.6684Z" fill="black"/>
<path d="M42.9714 73.5643L42.7609 73.6608L42.4902 73.8504L42.0626 73.9761L41.7245 73.8337L41.6299 73.8055L41.3686 73.7587L41.1207 73.7131L40.9924 73.6565L40.7641 73.4873L40.6737 73.3201L40.6062 73.2395L40.3928 73.0908L40.2261 73.0121L40.0953 72.9591L39.7529 72.7441L39.2999 72.4024L39.0223 72.1261L38.8281 71.8596L38.7381 71.7675L38.3402 71.5379L38.1911 71.4687L37.8227 71.3601L37.673 71.3244L37.5223 71.3196L37.4347 71.3147L37.2975 71.3036L37.1803 71.2894L36.9155 71.2066L36.8121 71.1203L36.6724 70.9779L36.5323 70.873L36.4359 70.8142L36.3064 70.7737L35.9327 70.6266L35.0326 70.2368L34.6958 69.9445L34.3005 69.7456L34.1007 69.6697L33.4608 69.453L33.3117 69.4175L32.4728 69.1167L31.9244 68.6736L31.7777 68.5463L31.5778 68.2724L31.0438 67.9833L30.6813 67.8739L30.3094 67.7795L30.0958 67.676L29.9906 67.6161L29.8924 67.5239L29.8522 67.3913L29.7212 67.2051L29.5719 67.1251L29.0668 66.9201L28.7996 66.7992L28.3395 66.549L28.1053 66.4161L27.6145 66.1903L27.2987 66.0751L27.1863 65.9647L27.0869 65.8603L27.1859 65.6059L27.3196 65.2047L27.6539 64.7813L28.0551 64.5585L28.2482 64.4618L28.6393 64.4016L28.6486 64.4308L28.6815 64.4176L28.7079 64.5428L28.7895 64.628L28.9569 64.6743L29.0668 64.6901L29.4133 64.7717L29.7771 64.8673L29.9054 65.2577L30.0145 65.6072L30.5009 66.0886L30.6258 66.1647L30.7617 66.1965L30.8901 66.1982L30.9846 66.1721L31.1082 66.0916L31.2088 66.0111L31.307 65.9925L31.3721 66.2587L31.3956 66.5795L31.4379 66.6976L31.5824 66.6943L31.7366 66.6059L31.768 66.241L31.9462 65.8622L32.0576 65.617L32.4588 65.4164L32.704 65.305L32.6816 65.5502L32.7931 65.8622L32.9732 65.9635L33.546 65.8937L33.7837 65.7818L33.8818 65.7258L34.0638 65.6374L34.1627 65.6465L34.3296 65.7402L34.5315 65.6504L34.6429 65.4276L34.8211 65.2047L35.2001 65.1156L35.4007 64.8258L35.668 64.4692L35.8018 64.1572L35.7573 63.8675L35.7349 63.5332L35.8241 63.2435L35.9579 63.0207L36.1138 62.9538L36.3589 62.8869L36.4286 62.6081L36.5595 62.6195L36.8038 62.6684L36.9273 62.5404L37.0202 62.5313L37.155 62.5781L37.3076 62.6711L37.6795 62.7111L37.9764 62.6576L38.2212 62.6054L38.1891 62.7955L38.2449 62.9177L38.4082 63.1207L38.5033 63.2349L38.5749 63.2836L38.8251 63.3426L38.9356 63.3408L39.3905 63.2507L39.8275 63.4235L39.9023 63.514L40.0144 63.5091L40.1207 63.3444L40.1958 63.1001L40.1881 62.9261L40.1308 62.8284L40.0864 62.7287L40.1503 62.5975L40.2691 62.5902L40.3626 62.6474L40.7073 63.0818L40.9557 63.4258L40.9345 64.0784L40.8789 64.174L40.8949 64.279L41.0279 64.3602L41.1166 64.3919L41.7115 64.5513L42.1208 64.3602L42.3726 64.2094L42.3813 64.1107L42.8257 64.2343L42.9813 64.3657L43.113 64.5039L43.2077 64.5599L43.2988 64.541L43.3969 64.4271L43.4632 64.3712L43.5666 64.345L43.6355 64.3701L43.6688 64.681L43.6243 65.4611L43.8918 65.7731L44.1592 65.8398L44.4435 65.8043L44.4377 66.0501L44.4896 66.4954L44.6128 66.6626L44.6991 66.7565L44.8045 66.8333L44.8878 66.9004L44.9445 66.967L44.9753 67.0569L44.9564 67.1538L44.8455 67.3318L44.8139 67.5046L45.0383 67.8785L45.2035 68.0023L45.2526 68.1018L45.229 68.2284L45.1874 68.3711L45.1587 68.5598L45.1575 68.775L45.1663 68.9941L45.1605 69.1739L45.1522 69.2914L45.1185 69.516L45.0539 69.622L44.944 69.7542L44.8493 69.8424L44.756 69.9306L44.7051 70.0341V70.1455L44.7419 70.2558L44.5827 70.3195L44.2929 70.2303L43.9586 69.9851L43.7804 69.896H43.5798L43.4906 70.0521L43.5798 70.1857L43.7358 70.3417L43.8472 70.4086L43.8957 70.5116L43.6424 70.6321L43.2308 71.1941L43.2721 71.4576L43.2308 71.6892L43.1284 71.738L42.983 71.7903L42.7075 72.0193L42.6565 72.0917L42.6299 72.1844L42.633 72.2956L42.6684 72.4393L42.8115 72.7496L42.8908 72.8253L43.093 73.1017L42.9714 73.5643Z" fill="black"/>
<path d="M32.9731 65.9635L32.793 65.8621L32.6816 65.5501L32.7039 65.3049L32.4587 65.4164L32.0576 65.617L31.9461 65.8621L31.7679 66.241L31.7366 66.6059L31.5824 66.6942L31.4378 66.6975L31.3955 66.5794L31.372 66.2586L31.307 65.9925L31.2087 66.0111L31.1082 66.0916L30.9846 66.172L30.89 66.1982L30.7616 66.1965L30.6257 66.1647L30.5008 66.0886L30.0144 65.6072L29.9053 65.2577L29.777 64.8673L29.4133 64.7717L29.0667 64.6901L28.9568 64.6742L28.7894 64.628L28.7078 64.5428L28.6814 64.4176L28.7829 64.2215L28.8208 64.0742L28.835 63.9658V63.7567L28.8191 63.6253L28.8082 63.5994L28.5252 63.3549L28.28 62.8646L28.0349 62.3966L27.9012 62.2184L27.7396 62.1606L27.688 62.2319L27.5884 62.3138L27.298 62.3444L27.2923 62.3206L27.1212 62.3074L26.9429 61.8171L26.876 61.3492L26.9875 61.0816L27.032 60.5691L27.0696 59.7989L27.0995 59.8082L27.0989 59.789H27.2772L27.656 59.9004L28.124 59.7669L28.2132 59.5885L28.3692 59.1427L28.3914 58.6747L28.4049 58.3648L28.3908 58.336L28.3583 58.1736L28.3678 58.0304L28.4112 57.8653L28.3028 57.7201L28.0922 57.447L28.0189 57.3963L27.916 57.3467L27.8178 57.2663L27.9561 56.7934L28.3979 56.6624L28.5097 56.7125L28.5208 56.738L28.6589 56.669L28.9264 56.3792L29.1269 56.1118L29.3944 55.9781L29.7064 55.7776L29.907 55.3764L30.2413 55.265L30.4546 55.1125L30.3619 54.9566L30.3954 54.832L30.3081 54.3958L30.1967 53.95L30.063 53.4597L29.9465 53.0229L29.8896 52.9401L29.7976 52.9273L29.751 52.7688L29.5726 52.5459L29.4861 52.4656L29.612 52.1123L29.6289 52.0764L29.907 52.1003L30.1298 51.9443L30.2454 51.819L30.2466 51.8211L30.4418 51.7994L30.7761 52.0446L31.1327 52.1114L31.4001 52.0668L31.5784 51.9553H31.8682L32.0019 51.9777L31.9895 52.1766L31.9537 52.1743L32.0401 52.3638L32.6076 53.4852L32.83 53.7403L32.9025 53.6879L33.133 53.9058L33.1886 53.9732L33.3286 54.2674L33.3615 54.3885L33.6734 54.5964L33.9408 55.0867L34.1414 55.5546L34.2528 56.0004L34.5425 56.3792L34.7432 56.7135L34.7205 56.8188L34.7234 56.8223L34.6539 57.0701L34.2751 57.1816L34.0025 57.2187L33.9627 57.2114L32.8874 56.4244L32.7984 56.2608L32.6842 56.1957L32.6008 56.227L32.4891 56.4769L32.4045 56.8713L32.4175 57.006L32.4317 57.1111L32.5357 57.8182L32.5743 57.933L32.6494 58.0963L32.7368 58.13L32.869 58.1809L33.0943 58.5387L33.0373 58.6067L32.8866 58.629L32.8504 58.7332L33.0928 59.2107L33.3483 59.9259L33.398 60.0913L33.4726 60.2585L33.6653 60.5161L33.7291 60.6115V60.8143L33.5954 61.0594L33.4839 61.2377L33.3056 61.5274L33.4839 61.8618L33.5508 62.2405L33.5063 62.6418L33.5955 62.7959L33.6594 63.086L33.6996 63.1657L33.7208 63.1868L33.9519 63.0652L34.1302 62.8646L34.6205 62.664L34.9994 62.6418L35.4674 62.4634L35.7572 62.419L35.8526 62.4904L35.9187 62.4125L36.2264 62.5905L36.4285 62.6081L36.3589 62.8869L36.1137 62.9538L35.9578 63.0206L35.824 63.2435L35.7348 63.5331L35.7572 63.8675L35.8017 64.1571L35.6679 64.4692L35.4006 64.8258L35.2 65.1155L34.8211 65.2047L34.6428 65.4275L34.5314 65.6504L34.3295 65.7401L34.1626 65.6465L34.0638 65.6374L33.8817 65.7258L33.7836 65.7817L33.5459 65.8937L32.9731 65.9635Z" fill="black"/>
<path d="M11.7855 20.9561L11.6359 21.2555V21.6296V22.0038L11.9351 22.303L12.1369 22.3137L12.1458 22.3686L12.3093 22.4152L12.4963 22.5276V22.9016L12.3093 23.1635L12.1597 23.5377L12.1223 23.8369L12.0099 24.1363L11.8603 24.4729V24.8471L12.0848 25.0341L12.3467 25.2586L12.3311 25.5543L12.4002 25.5964L12.8094 25.9012L13.0406 26.2882L13.1348 26.5179L13.1909 26.6642L13.2334 26.7605L13.3078 26.8702L13.449 26.9485L13.5983 26.9911L14.0066 27.2364L14.1808 27.5013L14.7038 28.5628L14.7045 28.6006L14.8369 28.7329L14.9483 28.8889L15.0152 29.3347V29.513L15.0032 29.5158L15.0152 29.5798L15.1489 29.8696L15.3495 30.2484L15.5501 30.6496L15.7284 31.1176L15.7952 31.5188L15.6392 31.7416L15.4609 31.9422L15.2157 32.1873L15.0668 32.2371L15.0058 32.3786L14.7889 32.4322L14.6289 32.2921L14.367 32.2173L14.0676 32.4793L13.7684 32.5915L13.4881 32.7316L13.4606 32.6001L13.438 32.5087L13.2658 32.4014L13.2446 32.1051V31.8058L13.0201 31.6561H12.8331L12.3467 31.7684L12.0848 31.6935L12.0099 31.3568L11.7107 31.1698L11.4862 31.282L11.2243 31.4316L10.9998 31.6561L10.925 31.8058L10.738 31.9554L10.476 32.0677L10.2384 32.0528L10.247 32.0191L10.2317 31.9232L10.0608 31.5723L9.67465 31.2488L9.58946 31.218L9.31386 31.1576L9.26219 31.1413L9.12923 30.7956V30.5338L9.04853 30.4185L9.05003 30.4084L9.01232 29.6831L9.00534 29.5689L9.0992 29.5339L9.13531 29.3937L9.11866 29.2629L9.14299 29.0303L9.4176 28.8983L9.77539 28.5368L9.79644 28.3731L9.74537 28.2763L9.47944 28.211L9.1394 28.1568L8.56635 27.4758L8.49902 26.9053L8.51668 26.8108L8.5876 26.6925L8.68815 26.6074L8.79697 26.5394L8.99247 26.4543L9.1389 26.4721H9.26119L9.36413 26.3197L9.42917 26.1448L9.57161 25.4462L9.5362 25.3666L9.15127 25.1787L9.12494 25.184L9.062 25.117L8.9831 24.909L9.00045 24.8953L8.95667 24.7624L8.91527 24.6874L8.84136 24.6136L8.78171 24.5008L8.69702 24.1415L8.78171 23.4617L9.03896 23.1483L9.13172 23.1613L9.10748 22.4578L8.95547 22.2485L8.80914 21.7315L9.16005 21.2245L9.40852 20.9486L9.49849 20.8647L9.61909 20.8589L9.70417 20.8648L10.0591 20.9121L10.2169 21.0195L10.3299 20.9992L10.4375 20.9002L10.7899 20.4591L10.8331 20.0954L10.8334 19.9189L10.8858 19.8154L11.0136 19.648L11.0851 19.5814L11.2364 19.473L11.3765 19.3804L11.4771 19.3368L11.6634 19.2732L11.725 19.2557L11.8237 19.4888L11.9667 19.9745L11.9833 20.0989L12.02 20.1797L12.0592 20.2394L11.9351 20.6943L11.7855 20.9561Z" fill="black"/>
<path d="M18.9416 51.5209L18.8825 51.626L18.7913 51.5258L18.7174 51.435L18.6191 51.3814L18.4773 51.3118L18.2532 51.2833L18.4005 50.9766L18.3861 50.7579L18.3501 50.5159L18.21 50.1214L18.2567 49.8358L18.2111 49.7054L18.6518 49.738L18.6742 50.5179L18.8302 50.7854L19.0307 51.0975L19.0976 51.3203L18.9416 51.5209Z" fill="black"/>
<path d="M36.2902 48.0009L36.4048 48.0956L36.7408 48.2765L37.3333 48.3436L37.6326 48.4743L37.8443 48.5301L38.0117 48.4815L38.3097 48.2873L38.5462 48.0727L39.0282 47.9061L39.0782 47.9137V48.2893L38.989 48.802L38.7885 49.1361L38.4987 49.4482L38.3651 49.6042L38.6547 49.9385L38.7334 50.0716L38.6952 50.2457L38.8331 50.4066L38.9223 50.8745L39.2788 51.0528L39.6799 51.3426L39.925 51.6769L40.0588 51.9889L40.3931 52.1449L40.2803 52.3704L40.3079 52.3777L40.3318 52.3961L40.1925 52.5237L39.8805 52.7688L39.992 52.9473L40.1702 53.1924L40.3263 53.3484L40.3708 53.7494L40.3931 54.017L40.6383 54.1952L40.8069 54.1784L40.8166 54.1952L41.0839 54.1061L41.4406 54.0838L41.9309 53.95L42.1314 53.9278L42.3989 54.2398L42.6217 54.6186L42.9784 54.8638L43.3795 54.9975L43.6247 55.0421L43.6777 55.2193L43.7244 55.2438L43.7361 55.4656L43.8697 55.8667L43.9367 56.1787L44.1373 56.2233L44.4046 56.045L44.583 55.889L44.751 55.6903L44.7928 55.6974L44.8504 55.5102L45.0286 55.4433L45.363 55.577L45.8756 55.6216L46.2991 55.7553L46.5905 55.7426L46.5991 55.7306L46.9452 55.7999L46.9008 56.4239L46.8784 56.8919L46.455 57.3599L46.0984 57.761L45.7864 58.1399L45.6527 58.3851L45.3407 58.7416L44.9841 58.8977L44.9395 59.2097L44.9172 59.477L45.0065 59.8783L44.9395 60.3018L44.8727 60.7028L44.7389 61.0372L44.4938 61.4383L44.4269 61.8395L44.3155 62.1291L44.0258 62.3298L43.9143 62.5081L44.0123 62.606L44.0117 62.6242L44.1412 62.8266L44.2441 62.9396L44.3565 62.9681L44.554 63.2641L44.6276 63.7193L44.5706 63.8296L44.4854 63.9562L44.4605 64.0463L44.4914 64.5203L44.5327 64.5982L44.6084 64.706L44.635 64.7986L44.6493 64.9337L44.651 65.0226L44.6243 65.3872L44.4239 65.4966L44.4463 65.6941L44.4438 65.8043L44.1595 65.8398L43.8921 65.7731L43.6247 65.4611L43.6691 64.681L43.6358 64.3701L43.5669 64.345L43.4635 64.3711L43.3972 64.4271L43.2991 64.541L43.208 64.5599L43.1133 64.5039L42.9816 64.3657L42.826 64.2343L42.3816 64.1107L42.3729 64.2094L42.1211 64.3602L41.7118 64.5513L41.1169 64.3919L41.0282 64.3602L40.8952 64.279L40.8792 64.174L40.9348 64.0784L40.956 63.4258L40.7076 63.0818L40.3629 62.6474L40.2694 62.5902L40.1507 62.5975L40.0867 62.7287L40.1311 62.8284L40.1885 62.9261L40.1961 63.1001L40.121 63.3443L40.0147 63.5091L39.9026 63.514L39.8278 63.4235L39.3908 63.2507L38.9359 63.3408L38.8254 63.3426L38.5752 63.2836L38.5036 63.2349L38.4085 63.1207L38.2452 62.9177L38.1894 62.7955L38.2215 62.6054L38.2429 62.5022L38.2369 62.3315L38.1678 62.2064L38.14 62.1159L38.1808 62.009L38.3005 61.8719L38.6427 61.6921L38.8945 61.572L39.1228 61.4676L39.1855 61.3802L39.2133 61.2553L39.2594 61.1782L39.5675 60.8532L39.6385 60.8029L39.7331 60.7471L39.8046 60.6126L39.9176 60.244L39.9501 60.0792L39.9602 59.5219L39.946 59.4166L39.9176 59.3258L39.7639 59.03L39.6491 58.8137L39.6018 58.7399L39.3582 58.5015L39.1087 58.3419L38.5858 58.1595L37.661 57.6925L37.0033 57.2657L36.8546 57.1874L36.4397 57.035L36.1387 57.0495L36.0002 57.1056L35.5124 57.0925L35.0216 57.0781L34.7905 56.9069L34.7209 56.8189L34.7435 56.7135L34.5428 56.3793L34.2532 56.0004L34.1418 55.5547L33.9412 55.0868L33.6737 54.5964L33.3618 54.3885L33.329 54.2674L33.189 53.9733L33.1334 53.9058L32.9029 53.6879L32.8304 53.7404L32.6079 53.4852L32.0405 52.3638L31.9541 52.1743L31.9899 52.1766L32.0003 52.0086L32.448 51.8885L32.7377 51.8663L32.9382 51.9109L33.0508 52.0047L33.0569 52.0028L33.1611 52.2229L33.2949 52.3343L33.6068 52.1115L33.9188 51.8663L34.2532 51.5989L34.4538 51.3314L34.2755 50.9079L34.0972 50.6406L34.0526 50.4845L33.937 50.3164L33.7183 50.2617L33.5846 50.1725L33.5177 49.816L33.5728 49.5849L33.5394 49.5731L33.6292 49.2588L33.7118 48.956L33.7391 48.9275L33.8194 48.8281L33.8691 48.7573L33.9377 48.6446L34.095 48.3209L34.1447 48.189L34.1805 48.0574L34.2718 48.0946L34.9418 48.0152L35.046 48.0009L35.3534 47.9529L35.506 47.9266L35.6444 47.8858L35.752 47.8469L35.8434 47.772L36.1677 47.7114L36.2902 48.0009Z" fill="black"/>
<path d="M18.1475 37.1661L18.1624 36.6112L17.8682 36.4302V36.0764L17.9042 35.8461L18.0712 35.809L18.4078 35.5845L18.6321 35.931L18.6839 35.9084L18.8087 35.9025L18.8897 35.9553L18.9284 36.0541H19.0984H19.3659H19.5355L19.5152 35.9769L19.6799 35.9586L20.054 35.8838L20.3533 35.9586L20.7648 35.809L21.0642 35.9212L21.2512 36.0335L21.4008 35.7341L21.5505 35.5471L21.7271 35.6354L21.7347 35.5849L21.9288 35.742L22.0644 35.7905L22.2277 36.0708L22.5027 36.7637L22.6135 36.9124L22.8287 36.9382L22.9039 36.8822L22.9771 36.764L22.8973 36.4449L22.7851 35.5096L23.1593 35.1356L23.5605 34.991L23.7069 35.2212L23.6928 35.2402L23.649 35.34L23.61 35.6049L23.5911 35.7878L23.5557 35.9113L23.542 35.9584L23.578 36.1655L23.6761 36.424L23.6809 36.4219L23.6672 36.7672L23.5999 37.1711L23.7306 37.66L23.9672 38.1881L24.0375 38.2642L24.102 38.407L24.1231 38.5257L24.202 38.5947L24.2689 38.7285L24.4918 39.1297L24.67 39.4417L24.8483 39.6867L25.0714 39.7565L25.1523 39.7141L25.351 39.5558L25.7662 39.3392L26.0072 39.3971L26.3415 39.3079L26.5643 39.1073L26.7427 38.9291L26.7204 38.4833L26.9433 38.2159L26.9973 37.8245L27.0312 37.7768L27.2998 37.7255L27.6118 37.681L27.7233 37.9039H27.9238L28.0353 37.7033L28.0576 37.4136L28.2136 36.9901L28.3053 36.6415L28.3484 36.6118L28.6935 36.4711L28.7892 36.4473L28.9335 36.4366L29.1701 36.4532L29.3332 36.4734L29.4119 36.5144L29.5172 36.6169L29.5805 36.7622L29.6088 36.9061L29.596 37.0164L29.3925 37.1485L29.1417 37.6361L29.0739 37.9583L29.1496 38.2827V38.7285L29.328 38.9513L29.417 39.2857L29.2387 39.5085L29.1496 39.7537L29.1552 39.8149L29.0604 39.9096L28.8152 40.1993L28.5924 40.4445L28.5032 40.7565L28.3472 40.9348L28.2136 41.0685L27.9462 41.0908L27.7233 41.2469L27.5896 41.3137L27.5251 41.4426L27.4494 41.4347L27.3667 41.5589L27.1439 41.7148L26.9433 41.5589L26.8468 41.4142L26.8065 41.4246L26.6981 41.336L26.4307 41.3137L26.2078 41.492L25.9403 41.6925L25.6868 41.8955L25.6005 41.9101L25.5468 41.914L25.2049 42.2274L24.9152 42.4726L24.6923 42.6286L24.4695 42.9406L24.2689 43.2749L24.1216 43.3559L24.0237 43.364L23.9123 43.5423L23.6894 43.6315L23.6226 43.9658L23.5535 44.1632L23.5312 44.1731L23.5112 44.2331L23.1992 44.211L22.798 44.0995L22.5751 44.0325L22.1517 43.9881L21.951 43.899L21.7282 43.676L21.4162 43.6538L21.0819 43.7652L20.7476 43.9881L20.4579 44.1886L20.0781 44.2779L20.0665 44.265L20.0057 44.2733L19.895 44.2327L19.8128 44.1646L19.7685 44.09L19.7298 43.8799L19.6348 43.8146L19.4486 43.857L19.3397 43.7911L19.2901 43.6641L19.2937 43.5895V43.5653L19.4105 43.4755L19.4773 43.3194L19.5441 43.052L19.455 42.7623L19.6333 42.584L19.7893 42.3834L19.767 41.8709L19.7002 41.5589L19.4995 41.2245L19.2321 41.0685L19.0111 40.9579L18.8755 40.9794L18.9424 40.6228L18.987 40.3998L19.1929 40.3636L19.4408 39.8022L19.6076 39.4283L19.6305 39.3965L19.9453 39.3747L20.1681 39.3301L20.3019 39.1741L20.3241 38.8176L19.9899 38.5947L19.4327 38.2827L19.0093 37.993L18.5318 37.7713L18.4131 37.6213L18.1848 37.233L18.1475 37.1661Z" fill="black"/>
<path d="M30.4543 55.1125L30.2409 55.265L29.9067 55.3764L29.7061 55.7776L29.3941 55.9781L29.1266 56.1118L28.9261 56.3792L28.6585 56.669L28.5205 56.738L28.5094 56.7125L28.3976 56.6624L27.9558 56.7934L27.8175 57.2663L27.9157 57.3467L28.0186 57.3963L28.0919 57.447L28.3024 57.7201L28.4109 57.8653L28.3675 58.0304L28.358 58.1736L28.3905 58.336L28.4046 58.3648L28.3911 58.6747L28.3689 59.1427L28.2129 59.5885L28.1237 59.7669L27.6557 59.9004L27.2768 59.789H27.0986L27.0992 59.8082L26.9648 59.7669H26.6528L26.4797 59.8476L26.4482 59.8113H26.1848L25.8282 59.6108L25.7317 59.4529L25.7075 59.4493L25.2728 59.2458L25.1433 59.0134L25.1226 58.5904L25.2592 58.3296L25.1561 57.808L25.2639 57.6768L25.3527 57.6114L25.4012 57.5389L25.465 57.3902L25.4651 57.286L25.43 57.2715L25.494 57.0924L25.4716 56.8918L25.3379 56.7582L25.0705 56.7804L24.8476 56.9587L24.6843 57.0784L24.649 57.0761L24.4538 57.0846L24.3171 57.0978L24.2119 57.099L24.1351 57.0585L24.1171 56.996L23.9784 57.0034L23.8447 56.8249L24.023 56.5798L24.2013 56.2678L24.2682 55.889V55.6216L24.3034 55.4174L24.3042 55.4173L24.2904 55.2872L24.5579 55.1758L24.6693 54.9306L24.7808 54.7746L24.9145 54.5295L25.0705 54.3734L25.0036 54.1729L25.0482 53.8832L25.139 53.6886L25.0714 53.6432L25.0658 53.6269H25.4048L25.8505 53.1589L26.3631 52.7131L26.8312 52.2897L27.2099 51.7103L27.2429 51.6279L27.2546 51.6212L27.2991 51.1085L27.5443 50.9525L28.1144 50.8638L28.7255 50.8857L28.9261 50.8634L29.0051 50.9236L29.0382 50.9302H29.3717L29.9735 51.064L30.2187 51.2868L30.2855 51.5765L30.1282 51.6194L30.2451 51.819L30.1295 51.9443L29.9067 52.1003L29.6286 52.0764L29.6117 52.1123L29.4857 52.4655L29.5723 52.5459L29.7507 52.7688L29.7973 52.9273L29.8893 52.9401L29.9462 53.0229L30.0627 53.4597L30.1963 53.95L30.3078 54.3958L30.395 54.832L30.3615 54.9566L30.4543 55.1125Z" fill="black"/>
<path d="M23.5847 55.2204L23.8298 55.3095H24.2533L24.285 55.4205L24.3041 55.4174L24.2688 55.6216V55.889L24.202 56.2678L24.0237 56.5799L23.8454 56.8249L23.9791 57.0034L24.1178 56.996L24.1358 57.0585L24.2126 57.099L24.3178 57.0978L24.4545 57.0846L24.6497 57.0761L24.685 57.0784L24.8483 56.9587L25.0712 56.7804L25.3386 56.7582L25.4723 56.8919L25.4946 57.0925L25.4307 57.2715L25.4658 57.2861L25.4657 57.3902L25.4019 57.5389L25.3534 57.6114L25.2646 57.6768L25.1568 57.808L25.2599 58.3296L25.1233 58.5905L25.144 59.0134L25.2735 59.2458L25.7082 59.4493L25.7324 59.4529L25.8289 59.6108L26.1855 59.8114H26.4489L26.4803 59.8476L26.6535 59.7669H26.9655L27.07 59.7989L27.0323 60.5692L26.9879 61.0817L26.8763 61.3492L26.9433 61.8171L27.1215 62.3075L27.2927 62.3206L27.2984 62.3445L27.5887 62.3138L27.6884 62.232L27.74 62.1606L27.9015 62.2184L28.0353 62.3966L28.2804 62.8646L28.5256 63.3549L28.8085 63.5994L28.8194 63.6253L28.8354 63.7567V63.9659L28.8211 64.0742L28.7833 64.2215L28.6818 64.4176L28.6489 64.4308L28.6396 64.4016L28.2485 64.4618L28.0554 64.5585L27.6542 64.7813L27.3199 65.2047L27.1862 65.6059L27.0872 65.8603L27.0718 65.844L26.8501 65.468L26.5361 65.008L26.4805 64.9398L26.4095 64.8594L26.2593 64.7209L25.8335 64.4186L25.3758 63.7263L25.2971 63.635L25.1848 63.5474L25.0849 63.4904L24.9205 63.4113L24.4745 63.151L23.9423 62.8362L23.5414 62.5079L23.5283 62.3443L23.5065 62.1736L23.322 61.7218L22.9607 61.3585L22.892 61.3051L22.7558 61.0278L22.6614 60.6658L22.3917 60.4198L22.28 60.3494L21.9578 60.2125L21.9842 59.2368L21.8018 59.1205L21.6094 59.0564L21.6765 58.836L21.8574 58.7689L21.9719 58.8269L22.0959 59.008L22.2451 58.6274L22.283 58.4955L22.4 58.0842L22.432 57.8388L22.487 57.3002L22.4213 57.1281L22.2137 56.7529L22.179 56.7171L22.1476 56.6725L22.1583 56.47L22.3144 56.3347L22.4926 55.9336L22.7823 55.7552L23.0943 55.5323L23.3173 55.3318L23.5847 55.2204Z" fill="black"/>
<path d="M27.4781 45.2893L27.5366 45.3168L27.7449 45.3029L28.2575 45.5703L28.5695 45.7263L28.9038 45.8823L29.0857 46.0123L29.2806 45.9928L29.4248 45.9892L29.609 46.0052L29.6614 46.281L29.6981 46.4702L29.7196 46.5335L30.0181 46.6401H30.4638L31.0656 46.5955L31.1561 46.6215L31.309 46.5779L31.6639 46.5239L31.7119 46.7961L31.8233 47.1304L32.2468 47.2196L32.4473 47.108L32.5365 46.8184L32.5587 46.4173V46.1944L32.5498 46.0059L32.5863 45.9545L32.6751 45.7774L32.7715 45.5955L33.3167 45.7613L33.4663 45.8804L33.623 46.0842L33.6407 46.1122L33.6508 46.4061L33.6953 46.785L33.9345 46.8509L33.9325 46.8616L34.1188 47.0079L34.208 47.6542L34.1717 48.052L34.1798 48.0573L34.144 48.189L34.0943 48.3209L33.937 48.6446L33.8684 48.7573L33.8187 48.8281L33.7384 48.9275L33.7111 48.956L33.6285 49.2588L33.5387 49.5731L33.5721 49.5849L33.5171 49.816L33.5839 50.1725L33.7177 50.2617L33.9363 50.3164L34.0519 50.4845L34.0965 50.6406L34.2749 50.9079L34.4531 51.3313L34.2525 51.5989L33.9182 51.8663L33.6062 52.1115L33.2942 52.3343L33.1605 52.2229L33.0562 52.0028L33.0502 52.0046L32.9375 51.9109L32.7371 51.8663L32.4473 51.8885L31.9996 52.0086L32.0016 51.9777L31.868 51.9554H31.5781L31.3998 52.0668L31.1324 52.1115L30.7758 52.0446L30.4416 51.7995L30.2464 51.8211L30.1283 51.6194L30.2856 51.5765L30.2187 51.2869L29.9736 51.064L29.3718 50.9303H29.0382L29.0051 50.9236L28.9261 50.8634L28.7255 50.8858L28.1145 50.8638L27.5443 50.9525L27.2991 51.1085L27.2546 51.6212L27.243 51.6279L27.21 51.7103L26.8312 52.2897L26.3631 52.7132L25.8506 53.1589L25.4048 53.6269H25.0659L25.0334 53.5319L25.0413 53.4868L24.9569 53.3038L24.9345 52.7467L25.0189 52.3082L24.9956 52.2653L24.7484 51.8035L24.759 51.7037L24.8282 51.5991L24.7957 51.4692L24.7048 51.3979L24.6916 50.9637H24.0454L23.9227 51.0063L23.7785 50.9404L23.6517 50.906L23.5714 50.9223L23.4213 50.83L23.0159 50.6988L22.9866 50.6227L22.649 50.1899L22.391 49.9372L22.3574 49.8562L22.3379 49.5657L22.3254 49.303L22.2897 49.1608L22.1913 49.0937L22.0978 49.1087L21.944 49.1038L21.7572 49.0247L21.6135 48.7818L21.2031 47.9474L21.1504 47.4174L21.1528 47.2964L21.18 47.0804L21.19 46.9963L21.1514 46.9027L21.4155 46.863L21.6607 46.9298L21.7428 47.0736L21.7868 47.0675L21.8539 47.0583L22.0173 47.175L22.3071 47.1304L22.5299 46.9076L22.8419 46.9521L23.1539 46.8184L23.243 46.5955L23.1985 46.3949L22.8419 46.4173L22.8163 46.1777H22.8167L22.8642 46.0161L22.9979 45.9715L23.1539 45.8378L23.3768 45.8601L23.5773 46.0161L23.8894 45.9492L24.2236 45.8823L24.4911 45.7487L24.9591 45.5703L25.2488 45.4143H25.3602L25.5386 45.615L25.6724 45.7655L25.7631 45.7571L25.9594 45.775L26.0735 45.772L26.1901 45.7403L26.2862 45.7051L26.3631 45.5703L26.5414 45.4589L26.898 45.2807L27.1877 45.2361L27.3146 45.2849L27.4781 45.2893Z" fill="black"/>
<path d="M16.7982 32.1317L16.8204 32.5105L16.865 32.9563L17.0499 32.9854L17.0582 33.0149L17.2216 33.0231L17.3776 33.1569L17.4444 33.5803L17.4951 33.9009H17.5471L17.996 33.7139L18.3327 33.6765L18.5946 33.8635L19.0436 33.9383L19.268 34.2751L19.4176 34.4995L19.5299 34.911L19.4378 34.9571L19.4677 35.099L19.4657 35.1797L19.3428 35.2104L18.9313 35.2852L18.5946 35.3974L18.4075 35.5845L18.0708 35.809L17.6155 35.9101L17.4346 35.5811L16.9201 34.7986L16.8338 34.7629L16.6824 34.687L16.4695 34.4864L16.3795 34.3949L16.3418 34.3166L16.2506 34.0448L16.2294 33.9191L16.1348 33.9072L15.3104 34.0662L14.968 34.5623L14.8161 34.6633L14.7309 34.6953L14.5878 34.7868L14.5227 34.8425L14.2474 35.0877L14.0933 35.4231L13.7823 36.2738L13.7853 36.3733L13.6611 36.6064L13.081 36.8097L12.4855 37.0041L12.4009 37.0369L12.2967 37.1414L12.185 37.3287L12.1679 37.4893L12.1954 37.6394L12.0889 37.895L11.949 37.9251H11.9175L11.9266 37.8966L11.921 37.745L11.6522 37.3317L11.5292 36.8776L11.5452 36.7723L11.5384 36.566L11.4949 36.3986L11.457 36.2975L11.1507 35.9518L10.8027 35.5729L10.8396 35.4665L10.8332 35.3793L10.5091 34.7294L9.80954 33.9748L9.73374 33.9024L9.63678 33.8502L9.5516 33.8158L9.22522 33.5453L9.13066 33.4641L9.04309 33.3715L8.89995 33.1622L8.66215 32.7506L8.59243 32.4791L8.54395 32.3262L8.35353 31.9883L8.21518 31.8295L8.14247 31.7524L7.98516 31.4965L7.96322 31.3502L7.99873 31.2258L7.90995 30.9551L7.87684 30.8698L7.77041 30.6222L7.72313 30.5512L7.46777 30.2983L7.57999 30.1685L8.17618 29.5523L8.34815 29.399L8.4446 29.3475L8.86504 29.4524L9.00538 29.569L9.01236 29.6832L9.05007 30.4084L9.04857 30.4185L9.12927 30.5338V30.7957L9.26223 31.1414L9.3139 31.1576L9.5895 31.218L9.67469 31.2488L10.0608 31.5723L10.2318 31.9232L10.247 32.0192L10.2385 32.0529L10.4761 32.0677L10.738 31.9554L10.925 31.8058L10.9998 31.6562L11.2244 31.4316L11.4862 31.282L11.7107 31.1698L12.01 31.3568L12.0849 31.6936L12.3467 31.7684L12.8331 31.6562H13.0201L13.2446 31.8058V32.1051L13.2658 32.4014L13.4381 32.5087L13.4606 32.6001L13.4881 32.7317L13.7684 32.5915L14.0677 32.4793L14.367 32.2174L14.6289 32.2922L14.7889 32.4322L15.0058 32.3786L15.0668 32.2371L15.2158 32.1873L15.4609 31.9423L15.6393 31.7417L15.7952 31.5188L15.7285 31.1176L15.5501 30.6496L15.3495 30.2484L15.1489 29.8696L15.0153 29.5798L15.0032 29.5158L15.2751 29.4537L15.5604 29.3494L15.6891 29.3213L15.7101 29.3836L15.7764 29.4594L15.8408 29.499L16.0164 29.8075L16.395 30.2657L16.4601 30.3865L16.4358 30.5073L16.324 30.7282L16.3418 30.9515L16.4552 31.2524L16.5222 31.3905L16.6622 31.4811L16.7047 31.5014L16.7313 31.8865L16.7982 32.1317Z" fill="black"/>
<path d="M7.93342 24.8632L8.05152 25.0033L8.06908 24.9995L8.19645 24.9697L8.50198 25.0854L8.56492 25.2213L8.65599 25.167L8.98286 24.9091L9.06176 25.117L9.1247 25.1841L9.15104 25.1788L9.53596 25.3666L9.57137 25.4462L9.42893 26.1448L9.3639 26.3197L9.26096 26.4721H9.13867L8.99224 26.4543L8.79673 26.5394L8.68791 26.6075L8.58736 26.6925L8.51644 26.8108L8.49879 26.9053L8.56612 27.4759L9.13917 28.1568L9.47921 28.211L9.74513 28.2763L9.7962 28.3731L9.77516 28.5369L9.41736 28.8984L9.14276 29.0303L9.11842 29.2629L9.13508 29.3937L9.09897 29.5339L9.00511 29.569L8.86476 29.4524L8.44433 29.3475L8.34787 29.399L8.17591 29.5523L7.57972 30.1685L7.4675 30.2983L7.46032 30.1745L7.44137 30.0218L7.37394 29.9128L7.00377 29.4653L6.90702 29.3976L6.75061 29.3008L6.51581 29.0581L6.45556 28.9736L6.38634 28.7233L6.31302 28.5387L5.73229 28.014L5.61988 27.9472L5.40821 27.8561L4.87835 27.6053L4.30112 27.2872L3.97973 27.0844L3.85056 26.9432L3.75001 26.8664L3.6377 26.7966L3.68138 26.767L3.79141 26.6169L4.01374 26.2896L4.16247 26.0526L4.20616 25.8871L4.3087 25.6868L4.5459 25.3861L4.72923 25.18L4.82509 25.089L4.90259 25.0346L5.05341 24.9709L5.43884 24.8519L5.51714 24.7786L5.75214 24.5905L5.94964 24.4401L6.21288 24.111L6.29746 23.9606L6.32569 23.6221L6.4001 23.5133L6.39402 23.4204L6.44429 23.3348L6.52588 23.385L6.62653 23.4599L7.10362 23.8413L7.3095 24.2227L7.39229 24.4659L7.56675 24.5435L7.71717 24.5905L7.82998 24.6751L7.93342 24.8632Z" fill="black"/>
<path d="M25.0189 52.3082L24.9345 52.7467L24.9569 53.3038L25.0413 53.4868L25.0334 53.5319L25.0715 53.6432L25.139 53.6887L25.0482 53.8832L25.0036 54.173L25.0706 54.3735L24.9146 54.5296L24.7808 54.7747L24.6694 54.9307L24.558 55.1758L24.2905 55.2873L24.3042 55.4173L24.2844 55.4205L24.2526 55.3095H23.8291L23.584 55.2204L23.3166 55.3318L23.0937 55.5323L22.7817 55.7553L22.492 55.9336L22.3138 56.3347L22.1576 56.4701L22.1577 56.4685L21.9859 56.4542L21.6413 56.0195L21.533 55.8867L21.4195 55.78L21.283 55.6611L21.2238 55.5984L21.1634 55.5103L21.109 55.31L21.0759 55.1654L21.0452 54.8917L20.6939 54.3907L20.546 54.2227L20.0635 53.2941L19.9082 52.8965L20.0783 52.7688L20.0338 52.3677L20.2567 52.0781L20.435 51.7437L20.4573 51.1865L20.2567 50.83L19.967 50.4957L19.6549 50.362L19.7663 50.0277L19.9447 49.9831L19.8332 49.7603L19.4989 49.426L19.1646 49.0916L18.8749 48.802L18.5852 48.735L18.3624 48.9579L18.1394 49.0694L17.9845 49.2797L17.7039 48.8634L17.4071 48.6044L16.9376 48.3185L16.6656 48.1663L16.5839 48.1279L16.4432 48.0847L16.2436 47.9435L16.1678 47.7479L16.2377 47.6059L16.3781 47.591L16.4002 47.4365L16.1085 46.3757L15.9369 46.0202L15.6661 45.5824L15.478 45.3587L15.1924 44.9906L15.5212 44.7535L15.5952 44.5685L15.6399 44.185L15.6643 43.9398L15.6894 43.9311L15.6879 43.9211L15.8663 43.7652L15.9999 43.6091L16.2674 43.5646L16.468 43.6538L16.4457 43.9435L16.2451 44.0772L16.1337 44.2331L16.0949 44.3727L16.1568 44.6438L16.4455 44.8386L16.4718 44.9361L16.4213 45.1244L16.4958 45.5764L16.8647 45.5741L17.1995 45.4509L17.9706 44.7843L18.1605 44.5853L18.2409 44.4861L18.2911 44.3839L18.3177 44.2591L18.3243 44.1107L18.3858 43.9759L18.4674 43.9072L19.1173 43.6438L19.293 43.5895L19.2894 43.6641L19.3391 43.7911L19.4479 43.857L19.6341 43.8146L19.7291 43.8799L19.7678 44.09L19.8122 44.1646L19.8944 44.2327L20.005 44.2733L20.0658 44.2651L20.1402 44.3487L20.2069 44.5175L20.251 44.6641L20.2651 44.8243L20.3172 44.9349L20.4289 45.0771L20.4715 45.1805L20.5046 45.3241L20.5177 45.4568L20.5584 45.5908L20.6194 45.6782L20.8015 45.8716L20.8334 45.9987L20.8382 46.1411L20.8477 46.247L20.8429 46.4139L20.8169 46.5373L20.8695 46.6612L20.9387 46.7138L21.1221 46.8315L21.19 46.9964L21.18 47.0804L21.1528 47.2964L21.1504 47.4174L21.2031 47.9474L21.6135 48.7818L21.7572 49.0247L21.944 49.1038L22.0978 49.1087L22.1913 49.0937L22.2897 49.1609L22.3254 49.303L22.3379 49.5657L22.3574 49.8562L22.3911 49.9372L22.649 50.19L22.9867 50.6228L23.0159 50.6988L23.4214 50.83L23.5714 50.9223L23.6517 50.9061L23.7785 50.9405L23.9227 51.0063L24.0454 50.9637H24.6916L24.7048 51.3979L24.7957 51.4692L24.8282 51.5991L24.759 51.7037L24.7484 51.8035L24.9956 52.2653L25.0189 52.3082Z" fill="black"/>
<path d="M19.9081 52.8965L19.8984 52.8717L19.854 52.6658L19.7606 52.5358L19.6045 52.3591L19.3585 52.1497L18.8825 51.626L18.9417 51.5209L19.0977 51.3203L19.0307 51.0975L18.8302 50.7855L18.6742 50.5179L18.6519 49.738L18.2111 49.7054L18.1461 49.5196L17.9844 49.2797L18.1393 49.0694L18.3622 48.9579L18.5851 48.735L18.8747 48.802L19.1645 49.0916L19.4987 49.426L19.8331 49.7602L19.9445 49.9831L19.7662 50.0277L19.6547 50.362L19.9669 50.4957L20.2565 50.83L20.4571 51.1865L20.4349 51.7437L20.2565 52.0781L20.0337 52.3677L20.0782 52.7688L19.9081 52.8965Z" fill="black"/>
<path d="M26.9343 0.0358093L27.4265 0.364477L27.6857 0.565369L27.7814 0.685265L28.1126 0.827405L28.1941 0.796883L28.3154 0.713992L28.4036 0.69115L28.4868 0.723369L28.5857 0.840273L28.6519 0.9478L28.7051 1.06939L28.723 1.16216L28.7276 1.25502L28.7578 1.37362L29.0806 1.56344L29.1889 1.46649L29.4041 1.61102L30.0985 2.14208L30.1741 2.24661L30.1989 2.28681L30.251 2.52152L30.3326 2.83173L30.4295 3.15012L30.5396 3.26882L30.7205 3.45435L30.6508 3.64597L30.5715 3.77873L30.6886 4.01723L30.7507 4.12825L30.8582 4.22111L31.4444 4.38151L32.3374 4.95615L32.4526 5.19515L32.8305 5.29918L32.9973 5.2546L33.2504 5.27684L33.6673 5.66117L33.7021 5.92081L33.7224 6.05367L33.8193 6.1618L34.0026 6.41097L34.1296 6.65575L34.0026 6.76707L33.96 6.84228L33.8725 7.23957L33.9446 7.31827L34.2604 7.52874L34.769 7.76943L35.0162 7.65093L35.1945 7.48545L35.4681 7.66619L35.6483 7.98129L35.7856 8.92052L35.7022 9.15213L35.6022 9.28619L35.4725 9.34674L35.5426 9.69595L35.5875 9.77296L35.7187 9.8764L36.0204 10.0422L36.1399 10.0046L36.312 9.99759L36.4486 10.2244L36.5361 10.4479L36.8222 10.3785L37.3817 10.1669L37.7785 10.0281L38.3717 10.1727L38.8956 10.3491L39.0163 10.3844L39.3225 10.4161L39.9932 10.0305L40.367 9.86822L40.5834 9.90861L40.7605 9.90353L40.8388 9.66004L41.1067 9.2815L41.4752 8.97807L41.5977 8.93049L41.6402 9.00929L41.6361 9.13447L41.678 9.25677L42.0937 9.30614L42.3345 9.29726L42.7939 9.49486L43.0092 9.77296L43.7484 9.83051L44.1186 9.62483L44.6496 9.48249L45.1497 9.25826L45.7946 9.68129H46.1898L46.5723 10.0159L47.0025 10.2072L47.2578 10.4341L47.292 10.4131L47.3778 10.3887L47.5493 10.4263L47.8753 10.7187L47.9177 10.8841L48.6756 10.733V10.972L48.5195 11.5029L47.0518 13.7864L46.9027 14.0183L46.3977 14.7985L46.1352 15.2035L45.9448 15.4943L45.7236 15.8416L46.2195 16.0526L46.5589 16.1786L46.6745 16.1789L46.7656 16.1395L47.0021 15.9959L47.0761 15.9382L47.2647 15.8758L47.3522 15.8852L47.4314 15.9241L47.8087 16.2296L48.0326 16.5102L48.1145 16.6689L48.1576 16.8002L48.1926 16.9103L48.2275 16.991L48.2829 17.0823L48.633 17.3714L48.7171 17.428L48.8555 17.5216L48.9914 17.6636L48.9904 17.7799L49.0187 17.8886L48.975 17.9763L48.8939 18.1007L48.7348 18.2086L47.9647 18.1862L47.7177 18.0111L47.5238 17.8355L47.4923 17.752L47.5367 17.6194L47.5308 17.514L47.4439 17.3678L46.9787 17.3352L46.8259 17.4315L46.678 17.5375L46.3198 17.6046L46.1429 17.4562L45.5606 17.4017L45.3568 17.4987L45.2635 17.5684L45.1073 17.8402L45.0918 17.9633L44.7354 18.3964L44.5785 18.3958L44.3255 18.6208H43.8474L43.4172 18.8598L42.7957 18.9553L42.1743 19.1944L41.5529 19.1465H40.9313L40.5489 19.4812L40.1187 19.8636L39.6407 20.1983L39.0192 20.4373L38.3499 20.8676L37.6807 21.5846L37.0592 21.8237L36.5812 22.5885L36.4377 23.3056L36.2944 24.2138L35.7207 24.6919L35.1948 25.5523L35.6251 26.604L35.8163 27.2733L35.1948 27.8948L34.5256 28.2293L33.4738 28.7074L33.0436 28.9464L32.8524 29.9504L32.6437 30.0099L32.6478 30.0471L32.7311 30.1093L32.9677 30.4752L33.0281 30.8427L32.8903 30.9482L32.0688 31.0557L32.0714 31.4133L31.9355 31.7732L31.8303 31.7794L31.7898 31.7323L31.7111 31.6724L31.6986 31.6656L31.6901 31.53L31.4004 31.307L31.1107 31.0619L30.6872 31.0173L30.3752 30.995L30.2193 30.8168L29.9963 30.7944L29.8403 30.839L29.7512 30.995L29.7452 31.0233L29.7335 31.0137L29.7217 31.0059L29.5507 31.2626L29.3947 31.4185L29.3124 31.5624L29.3486 31.7548L29.3781 31.932L29.4431 32.7767L29.4278 33.1527L29.4065 33.2624L29.3308 33.3745L29.1972 33.4682L29.1221 33.5103L29.0158 33.7585L28.7706 33.8923L28.2134 33.9369L27.7677 33.8923L27.7248 33.8421L27.6727 33.8576L27.5448 33.7809L27.0545 33.7363L26.8317 34.0037L26.631 34.1821L26.5223 34.3029L26.3799 34.2869L26.1043 34.2394L25.838 34.44L25.7396 34.6277V35.0066L25.7174 35.274V35.5328L25.5699 35.6475L25.3411 35.7047L25.3284 35.6939L25.2279 35.599L25.1297 35.511L24.9937 35.4285H24.808L24.2462 35.9173L23.9859 36.1942L23.9079 36.2939L23.8322 36.3558L23.6759 36.424L23.5779 36.1654L23.5419 35.9584L23.5555 35.9113L23.5909 35.7878L23.6099 35.6049L23.6489 35.34L23.6927 35.2402L23.7068 35.2212L23.5333 34.9484L23.6081 34.3872L23.7951 34.0506L24.0343 33.8285L23.9859 33.7387L23.8861 33.5268H23.592L23.5192 33.2719L23.2553 32.9266L23.1334 32.5206L23.0319 31.8302L22.6867 31.485L22.5649 31.1195V30.7947L22.5806 30.527L22.86 30.434L22.8718 30.3627L22.8958 30.2676L23.3088 29.9726V29.5985L23.1965 28.7005L23.4028 28.4944L23.4821 28.4695L23.6572 28.4593L23.7815 28.4878L23.9066 28.5233L24.0238 28.5706L24.1374 28.6535L24.2498 28.7386L24.2949 28.7951L24.7679 28.7753L25.142 28.7005L25.3021 28.6365L25.3071 28.6286L25.3462 28.5091L25.417 28.1766L25.4053 28.0087L25.41 27.8644L25.4289 27.6113L25.4549 27.3086L25.4868 27.0993L25.527 26.8959L25.5353 26.7836L25.5206 26.6547L25.4793 26.5612L25.6658 26.3436L25.7032 25.9695L25.4787 25.6702L25.1046 25.4831L24.5808 25.5953L24.3018 25.8079L23.9173 25.727L23.7932 25.7104L23.4785 25.7126L23.2878 25.7278L23.0469 25.8946L22.6354 26.1566L22.336 26.0069L22.0368 25.6328L21.6252 25.2587L21.2405 25.2201L21.1573 25.2871L21.0063 25.3915L20.8564 25.4594L20.6197 25.4952L20.4093 25.4085L20.197 25.2601L20.1131 25.1333L20.0173 24.942L19.9836 24.7854L19.8949 24.5326L19.8299 24.4146L19.7612 24.2917L19.3283 23.9942L19.1143 23.9263L18.996 23.9381L18.8304 23.9446L18.6234 23.9387L18.2509 23.9116L18.1314 23.8819L18.0073 23.8465L17.8949 23.7887L17.7187 23.594L17.637 23.4995L17.5471 23.3585L17.4183 23.2551L17.2101 23.1578L16.944 23.0734L16.6944 22.9931L16.5607 22.9117L16.3183 22.7318L16.2769 22.6521L16.2343 22.5966L15.9777 22.0432L15.9363 21.9193L15.8926 21.6815L15.8637 21.667L15.4521 21.3303V21.0311L15.7268 20.7221L15.6926 20.5239L15.6844 20.3943L15.708 20.1479L15.7671 19.9415L15.8416 19.7588L15.9186 19.641L15.9954 19.5407L16.084 19.4465L16.1639 19.3822L16.268 19.2178L16.5406 18.6438L16.5702 18.5201L16.6057 18.2786L16.582 18.1372L16.5543 18.0429L16.5607 17.8203L16.6234 17.0782L16.6648 16.9928L16.627 16.3692L16.6057 16.2737L16.5702 16.1948L16.5229 16.1242L16.3608 15.9158L16.3029 15.8004L16.2769 15.7097L16.2674 15.6038L16.2793 15.4354L16.3035 15.2559L16.122 14.4407L16.0876 14.3319L15.9445 14.0441L15.7784 13.7746L15.7363 13.6447L15.7258 13.511L15.708 13.0839L15.5521 12.4032L15.6193 12.3828L17.1296 11.8663L18.0475 11.5523L18.8174 11.2876L19.4088 11.0841L20.4469 10.7262L21.54 9.9141L22.944 8.85937L23.3555 8.3739L24.1906 7.38181L24.4532 7.0691L24.8468 6.5966L25.0133 6.42453L25.1165 6.3579L25.1605 6.24758L25.4585 5.0971L25.552 4.72344L25.6265 4.43557L25.6786 4.23458L25.805 3.74701L25.9127 3.86561L25.9866 3.93733L26.1108 3.9878L26.5944 3.94402L26.3964 3.28987L26.2711 2.93397L26.3109 2.61947L26.3373 2.59443L26.381 2.57648L26.4574 2.50685L26.4771 2.21669L26.3999 2.05629L26.0709 1.80932L25.9683 1.8178L25.8595 1.73441L25.7577 1.6186L25.6679 1.46888L25.6075 1.30879L25.5627 1.09174L25.5389 1.00127L25.4691 0.826807L25.0857 0.605866L24.8586 0.571553L24.8956 0.294554L25.3077 0.338343L25.4745 0.452056L25.708 0.538936L26.0286 0.483775L26.2178 0.413752L26.3006 0.350413L26.4143 0.362083L26.5557 0.249967L26.5951 0.133063L26.6448 0L26.9343 0.0358093Z" fill="black"/>
<path d="M46.1156 46.5529L46.1179 46.6989L46.3296 46.5348L46.5649 46.3822L46.6804 46.4589L46.8004 46.5779L46.8606 46.6666L46.8822 46.6936L47.3356 46.6559L47.8772 46.5747L48.4185 46.4934L48.7509 46.4658L48.8063 46.4307L48.9364 46.3517L49.0192 46.3146L49.1214 46.2889L49.7422 46.3349L49.9223 46.4938L50.1322 46.4809L50.2279 46.4583L50.5686 46.4451L50.6478 46.4463L50.6439 46.4485L50.9328 46.9288L51.2226 47.4077L52.0044 48.6973L52.1499 48.9371L52.2955 49.177L52.7685 49.957L52.8962 50.1671L53.0606 50.4372L53.1186 50.5273L53.2463 50.7375L53.3823 50.9693L53.5739 51.3526L53.7644 51.7421L54.1309 52.4926L54.1866 52.6128L54.3474 52.9427L54.4373 53.1231L54.4527 53.1462L54.1559 53.5083L54.0505 53.766L53.8496 54.1516L53.5774 54.2575L53.6165 54.6017L53.5352 54.9537L53.1777 55.2126L52.8504 55.4209L52.427 55.577L52.0704 55.7553L51.736 55.8443L51.2903 56.0228L51.0452 56.1342L50.8 56.4015L50.3097 56.513L49.8324 56.5536L49.7413 56.5091L48.8834 56.357L48.3932 56.0895L47.836 55.8443L47.212 55.7776L46.9425 55.8275L46.9444 55.7998L46.5983 55.7306L46.5897 55.7426L46.2983 55.7553L45.8747 55.6216L45.3621 55.577L45.0278 55.4432L44.8495 55.5102L44.792 55.6974L44.7502 55.6903L44.5822 55.889L44.4038 56.045L44.1364 56.2233L43.9359 56.1787L43.8689 55.8667L43.7353 55.4656L43.7236 55.2438L43.6769 55.2193L43.6238 55.0421L43.3787 54.9975L42.9776 54.8638L42.6209 54.6186L42.398 54.2398L42.1306 53.9278L41.9301 53.95L41.4398 54.0838L41.0831 54.1061L40.8158 54.1952L40.8061 54.1784L40.6375 54.1952L40.3923 54.017L40.37 53.7494L40.3255 53.3483L40.1694 53.1923L39.9911 52.9473L39.8797 52.7688L40.1917 52.5237L40.331 52.3961L40.307 52.3777L40.2795 52.3704L40.3923 52.1449L40.058 51.9889L39.9242 51.6769L39.6791 51.3426L39.2779 51.0528L38.9214 50.8745L38.8323 50.4066L38.6944 50.2457L38.7326 50.0715L38.6539 49.9385L38.3643 49.6042L38.4979 49.4482L38.7877 49.1361L38.9882 48.802L39.0774 48.2893V47.9137L39.1231 47.9207L39.2525 47.8099L39.4352 47.5458L39.5367 47.1804L39.5976 46.9368L39.4352 46.7946L39.4757 46.5916L39.6911 46.5646L39.6898 46.5628L40.0037 46.6119L40.283 46.5759L40.3036 46.5935L40.4668 46.6199H40.5791H40.6986L40.9943 46.5965L41.122 46.5756L41.1431 46.5667L41.6077 46.5916L42.7651 46.551L42.9479 46.3682L43.2118 46.1245L43.2931 45.881L43.3225 45.498L43.3468 45.4929L43.3539 45.292L43.4961 44.8657L43.6382 44.683L43.9225 44.3986L44.3895 44.216L44.8971 43.688L45.2226 43.3767V43.3644L45.4656 43.2617L46.1292 42.2083L46.1262 42.6528L46.1274 43.1578L46.1262 43.8122L46.1227 44.9738L46.1202 45.7188L46.1156 46.2847V46.5529Z" fill="black"/>
<path d="M45.4098 68.4228L45.4295 68.446L45.6746 68.4028L46.0088 68.3805L46.2763 68.4028L46.348 68.4746L46.375 68.4668L47.0179 68.638L47.1006 68.7469L47.2917 69.289L47.3342 69.677L47.3117 69.7751L47.3057 69.8951L47.456 70.3521L47.4956 70.4636L47.9481 70.9467L48.2432 71.2306L48.3731 71.2852L48.6217 71.3278L48.7389 71.4557L48.3869 71.7948L48.3712 72.1246L48.3489 72.4812L48.2236 72.6316L48.2358 72.6522L48.1038 72.6596L47.881 72.7263L47.8216 72.5781L47.7472 72.5637V72.4144L47.7026 72.1024L47.502 71.9909L47.3362 72.0361L47.3082 72.0211L47.0918 72.0273L46.9558 72.104L46.8138 72.2845L46.7097 72.6076L46.692 72.7305L46.7629 72.8983L46.7937 72.9838L46.7901 73.1141L46.55 73.4105L46.2815 73.723L46.1881 73.782L46.0397 73.8393L45.8965 73.8775L45.8268 73.9291L45.7411 74.059L45.5921 74.3385L45.3862 74.745L45.2431 75.0309L45.162 75.1473V75.3562L44.9391 75.8687L44.694 76.0917L44.3151 76.2476L44.0254 76.4259H43.8379L43.832 76.4217L43.7894 76.3706L43.7525 76.2931L43.6523 76.2163L43.2644 75.9916L43.0301 75.5931L42.9853 75.2577L42.9515 75.026L42.8486 74.6057L42.7676 74.5638L42.4802 74.3015L42.4495 74.2597L42.4444 74.1747L42.2331 74.0479L42.0625 73.9761L42.4901 73.8503L42.7608 73.6608L42.9713 73.5643L43.0929 73.1017L42.8907 72.8252L42.8114 72.7496L42.6683 72.4393L42.6329 72.2956L42.6298 72.1844L42.6564 72.0917L42.7074 72.0193L42.9829 71.7903L43.1283 71.738L43.2307 71.6892L43.272 71.4576L43.2307 71.1941L43.6423 70.6321L43.8956 70.5116L43.8471 70.4086L43.7357 70.3417L43.5797 70.1857L43.4905 70.0521L43.5797 69.896H43.7803L43.9585 69.9851L44.2928 70.2303L44.5826 70.3195L44.7418 70.2557L44.705 70.1455V70.0341L44.7559 69.9306L44.8492 69.8424L44.9439 69.7542L45.0538 69.622L45.1184 69.516L45.1521 69.2914L45.1604 69.1739L45.1662 68.994L45.1574 68.775L45.1586 68.5597L45.1873 68.3711L45.3034 68.3549L45.4098 68.4228Z" fill="black"/>
<path d="M21.7435 47.0736L21.6614 46.9298L21.4162 46.8629L21.1521 46.9026L21.1228 46.8314L20.9394 46.7137L20.8702 46.6611L20.8177 46.5373L20.8436 46.4139L20.8484 46.247L20.8389 46.1411L20.8341 45.9986L20.8022 45.8715L20.6202 45.6781L20.5591 45.5908L20.5184 45.4568L20.5053 45.324L20.4722 45.1805L20.4296 45.0771L20.3179 44.9348L20.2659 44.8243L20.2517 44.664L20.2076 44.5175L20.1409 44.3486L20.0781 44.2779L20.458 44.1886L20.7476 43.988L21.082 43.7652L21.4162 43.6538L21.7282 43.676L21.9511 43.8989L22.1518 43.988L22.5752 44.0325L22.798 44.0994L23.1992 44.2109L23.5112 44.2331L23.5313 44.173L23.5535 44.1632L23.6227 43.9658L23.6895 43.6314L23.9123 43.5422L24.0237 43.364L24.1217 43.3558L24.2689 43.2748L24.4695 42.9406L24.6923 42.6286L24.9153 42.4726L25.2049 42.2274L25.5469 41.914L25.6005 41.9101L25.6868 41.8954L25.9404 41.6924L26.2078 41.4919L26.4307 41.3137L26.6982 41.3359L26.8066 41.4246L26.8469 41.4141L26.9433 41.5589L27.1439 41.7148L27.3668 41.5589L27.4495 41.4347L27.5252 41.4426L27.5896 41.3137L27.7234 41.2469L27.9462 41.0907L28.2136 41.0685L28.3473 40.9347L28.5033 40.7565L28.5925 40.4445L28.8153 40.1993L29.0605 39.9095L29.1552 39.8149L29.172 39.9987L29.3503 40.2439L29.5731 40.3998L29.6623 40.6897L29.7959 40.957L29.7705 41.3271L29.7934 41.3884L29.8755 41.6166L30.0411 41.6924L30.1303 42.0268L30.1525 42.4057L30.4199 42.7622L30.6205 42.9183L30.9103 42.9628L30.888 43.2971L30.7765 43.5422L30.732 43.832L30.8434 44.1218L31.044 44.3224L31.1554 44.3892L31.2223 44.5674L31.2001 44.7679L31.069 44.8336L31.0827 44.8506L31.0625 44.9414L30.9241 44.9917L30.794 45.0336L30.5516 45.1591L30.2548 45.4532L30.1222 45.6074L30.069 45.6781L29.7792 45.9281L29.6097 46.0052L29.4256 45.9891L29.2813 45.9927L29.0864 46.0123L28.9045 45.8823L28.5702 45.7263L28.2582 45.5703L27.7456 45.3029L27.5373 45.3168L27.4788 45.2893L27.3153 45.2848L27.1884 45.2361L26.8988 45.2806L26.5422 45.4589L26.3638 45.5703L26.2869 45.7051L26.1909 45.7403L26.0742 45.772L25.9601 45.775L25.7638 45.757L25.6732 45.7655L25.5393 45.615L25.361 45.4143H25.2495L24.9599 45.5703L24.4919 45.7487L24.2243 45.8823L23.8901 45.9491L23.5781 46.0161L23.3775 45.8601L23.1546 45.8377L22.9986 45.9715L22.8649 46.0161L22.8174 46.1777H22.817L22.8426 46.4173L23.1992 46.3949L23.2437 46.5955L23.1546 46.8183L22.8426 46.9521L22.5306 46.9075L22.3078 47.1304L22.018 47.1749L21.8546 47.0582L21.7875 47.0675L21.7435 47.0736Z" fill="black"/>
<path d="M1.43185 25.7852L1.36053 25.6525L1.24412 25.3867L1.31065 25.1208L1.47683 24.9214L1.75932 24.9379L1.95871 24.8715L2.03791 24.7132L2.0405 24.7139L2.09227 24.7089L2.12499 24.6056L2.2413 24.5058L2.37426 24.1403L2.34094 23.7082L2.17476 23.3259L1.85906 22.8274L1.55992 22.6445L1.2109 22.4784L0.84533 22.1792L0.878546 21.9465L1.02807 21.6972L1.15165 21.6314L1.20931 21.3333L1.31783 21.2823L1.47643 21.3006L1.55443 21.2763L1.4103 21.1322L1.24412 20.833L0.812114 20.5007L0.313477 19.9523L0.330134 19.57L0.463098 18.8721L0.579403 18.3237L0.740396 18.1056L0.793362 17.9663L0.87316 17.8414L1.47085 17.2937L1.59603 17.2113L1.69059 17.4951L1.96639 17.7207H2.53056L3.14481 17.683L3.48325 17.5577L3.52016 17.4593L3.57163 17.4503L3.82 17.2319L3.88444 17.3446L3.97221 17.4575L4.22288 17.7583L4.32323 17.9964L4.34836 18.179L4.18428 18.4228L4.17889 18.5415L4.2534 18.6492L4.48352 18.7757L4.56511 18.8053L4.70107 18.7499L4.8052 18.6944L5.11163 18.4611L5.26414 18.321L5.34424 18.2345L5.46404 18.2221L5.70213 18.2723L5.92786 18.4226L6.31648 18.5732L6.66749 18.6984L6.88055 18.8866L7.00284 18.8003L7.01312 18.8062L7.14877 18.8194L7.29171 18.7742L7.43215 18.8238L7.87094 18.8364L8.10365 18.9075L8.19024 18.9844L8.27303 19.2405L8.29188 19.4069L8.56279 20.0264L8.59102 20.158L8.92936 20.5346L9.2694 20.8677L9.49842 20.8647L9.40845 20.9485L9.15998 21.2244L8.80907 21.7315L8.9554 22.2485L9.10741 22.4578L9.13165 23.1612L9.03889 23.1483L8.78164 23.4617L8.69695 24.1415L8.78164 24.5008L8.84129 24.6136L8.9152 24.6874L8.9566 24.7624L9.00038 24.8953L8.65616 25.167L8.56509 25.2212L8.50215 25.0854L8.19662 24.9697L8.06924 24.9995L8.05169 25.0033L7.93368 24.8631L7.83015 24.6751L7.71743 24.5904L7.56691 24.5434L7.39246 24.4658L7.30966 24.2227L7.10379 23.8412L6.62669 23.4599L6.52605 23.3849L6.44446 23.3348L6.39418 23.4204L6.40027 23.5132L6.32586 23.6221L6.29763 23.9605L6.21304 24.1109L5.94981 24.4401L5.75231 24.5904L5.5173 24.7785L5.439 24.8519L5.05358 24.9709L4.90276 25.0346L4.82525 25.089L4.7294 25.1799L4.54606 25.3861L4.30886 25.6867L4.20632 25.887L4.16263 26.0525L4.01391 26.2895L3.79157 26.6169L3.68155 26.767L3.63786 26.7965L3.61183 26.7801L3.42121 26.8159L3.08885 26.9654L2.73983 26.7328L2.3576 26.417L2.14155 26.2508L2.06893 26.0934L1.67323 25.9278L1.43185 25.7852Z" fill="black"/>
<path d="M50.1992 68.3429L50.3755 68.4362L50.8309 68.5273L50.8917 68.7095L50.6791 68.9523L50.5576 69.2863L50.8005 69.5292L51.1952 69.347H51.4077L51.6203 69.681L51.9543 69.7417L52.349 69.5899L52.5311 69.256L52.7477 69.1227L52.7841 69.1494L52.9358 69.3391L52.982 69.3398L53.0292 69.4614L53.1406 69.7065V70.1078L53.1123 70.2687L53.1037 70.2724L52.9193 70.5077L52.8884 70.8369L52.9283 71.1061L53.0037 71.1977L53.0119 71.3197L52.8488 71.4379L52.6065 71.561L52.2474 71.8547L51.6993 72.51L51.4172 73.0704L51.3344 73.1559L51.0831 73.2658L50.8015 73.4111L50.5407 73.654L50.4296 73.7869L50.2708 74.1083L50.1823 74.1352L50.031 74.1673L49.9435 74.1636L49.4998 73.9371L49.138 73.7494L48.7336 73.4547L48.6613 73.3742L48.2238 72.6316L48.349 72.4812L48.3714 72.1246L48.387 71.7947L48.739 71.4557L48.6218 71.3278L48.3733 71.2852L48.2433 71.2306L47.9482 70.9467L47.4958 70.4636L47.4562 70.3521L47.3059 69.895L47.3119 69.7751L47.3343 69.677L47.2918 69.289L47.1008 68.7469L47.018 68.638L46.3751 68.4668L46.3481 68.4745L46.2765 68.4028L46.009 68.3805L45.6747 68.4028L45.4296 68.446L45.41 68.4228L45.3035 68.3548L45.1874 68.3711L45.229 68.2284L45.2527 68.1018L45.2036 68.0022L45.0383 67.8785L44.814 67.5046L44.8455 67.3317L44.9564 67.1538L44.9754 67.0568L44.9446 66.967L44.8879 66.9004L44.8045 66.8333L44.6992 66.7565L44.6129 66.6625L44.4896 66.4954L44.4377 66.0501L44.446 65.6941L44.4237 65.4966L44.6241 65.3872L44.6507 65.0226L44.649 64.9337L44.6347 64.7986L44.6081 64.706L44.5324 64.5982L44.4911 64.5203L44.4603 64.0463L44.4851 63.9562L44.5703 63.8296L44.6274 63.7193L44.5537 63.264L44.3562 62.9681L44.2438 62.9396L44.141 62.8265L44.0114 62.6242L44.012 62.606L43.9141 62.5081L44.0256 62.3298L44.3152 62.1291L44.4267 61.8394L44.4935 61.4383L44.7387 61.0372L44.8724 60.7028L44.9393 60.3017L45.0062 59.8783L44.9169 59.477L44.9393 59.2097L44.9839 58.8977L45.3405 58.7416L45.6525 58.3851L45.7861 58.1399L46.0981 57.761L46.4547 57.3599L46.8782 56.8919L46.9005 56.4239L46.9431 55.8275L47.2125 55.7776L47.8365 55.8443L48.3937 56.0895L48.884 56.357L49.7418 56.5091L49.833 56.5536L50.3103 56.513L50.8005 56.4015L51.0457 56.1342L51.2909 56.0228L51.7366 55.8443L52.0709 55.7552L52.4275 55.577L52.8509 55.4209L53.1782 55.2126L53.5358 54.9537L53.4816 55.3868L53.5088 55.847L53.59 56.0365L53.4546 56.6321L53.2358 56.9927L53.2374 57.2779L53.2297 57.5129L53.1534 57.771L52.9663 58.1015L52.7974 58.3878L53.0044 58.7508L53.0575 58.9613L53.1705 59.514L53.231 59.6049L53.3314 59.6848L53.4097 59.7394L53.3734 60.0839L53.4546 60.3817L53.1569 60.49L52.9403 60.6524L52.859 61.1668L52.5883 61.4917L52.3175 61.7895L51.9927 62.1955L51.722 62.5746L51.5325 62.9807L51.5455 63.1246L51.5114 63.1587L51.4408 63.8774L51.8087 64.3797L52.2226 64.7266L52.3373 64.8546L52.481 65.0293L52.4552 65.1469L52.3415 65.1859L52.2302 65.1786L51.9223 65.465L51.6489 65.9561L51.6225 66.0126L51.4685 65.9465L51.2864 65.7947L50.8613 65.7644L50.7095 65.4608L50.4666 65.4H50.1629L50.0719 65.0358L49.7379 64.7625L49.4343 64.6715L49.07 64.5803L48.7664 64.4891H48.4323L48.0985 64.5196L48.0376 64.7017L48.0985 64.8838H48.3717L48.6449 64.9143L49.0092 64.8838L49.1914 64.975L49.2521 65.4L49.0092 65.5518L48.8574 65.7037L48.9181 66.0073L49.1307 66.1287V66.5234L48.9485 66.5538L48.8574 66.827L48.6449 66.9181L48.3413 67.0396L48.4323 67.3735L48.4932 67.7075L48.5842 67.9807L48.827 67.9505H49.0092L49.2217 68.1326L49.3736 68.1933L49.495 67.9505L49.6164 67.8896L49.7075 68.1326L49.829 68.3754H50.1934L50.1992 68.3429Z" fill="black"/>
<path d="M18.6233 23.9387L18.8303 23.9446L18.9959 23.9381L19.1142 23.9263L19.3282 23.9941L19.7611 24.2917L19.8297 24.4146L19.8948 24.5326L19.9835 24.7853L20.0172 24.9418L20.113 25.1333L20.1969 25.2601L20.4092 25.4085L20.6195 25.4951L20.8562 25.4594L21.0062 25.3915L21.1572 25.2871L21.2404 25.2201L21.6251 25.2586L22.0367 25.6328L22.3359 26.0068L22.6352 26.1566L23.0468 25.8946L23.2877 25.7278L23.4784 25.7126L23.793 25.7104L23.9172 25.727L24.3017 25.8078L24.5807 25.5954L25.1045 25.4831L25.4785 25.6702L25.7031 25.9694L25.6657 26.3436L25.4791 26.5611L25.5204 26.6547L25.5352 26.7836L25.5269 26.8959L25.4867 27.0992L25.4548 27.3086L25.4288 27.6113L25.4099 27.8643L25.4051 28.0087L25.4169 28.1766L25.3461 28.5091L25.307 28.6286L25.302 28.6365L25.1419 28.7005L24.7677 28.7753L24.2946 28.7951L24.2497 28.7386L24.1372 28.6534L24.0237 28.5706L23.9065 28.5233L23.7813 28.4878L23.6571 28.4593L23.482 28.4695L23.4027 28.4943L23.1964 28.7005L23.3086 29.5985V29.9726L22.8957 30.2676L22.8716 30.3627L22.8599 30.4339L22.5805 30.527L22.5648 30.7947V31.1195L22.6866 31.485L23.0317 31.8302L23.1333 32.5206L23.2552 32.9266L23.5191 33.2719L23.5919 33.5268H23.886L23.9858 33.7387L24.0342 33.8284L23.795 34.0506L23.608 34.3872L23.5332 34.9484L23.5602 34.991L23.159 35.1355L22.7849 35.5096L22.8971 36.4449L22.9769 36.764L22.9037 36.8822L22.8285 36.9382L22.6132 36.9123L22.5025 36.7637L22.2275 36.0708L22.0642 35.7905L21.9285 35.742L21.7344 35.5849L21.7268 35.6354L21.5503 35.5471L21.4006 35.7341L21.2509 36.0335L21.0639 35.9211L20.7646 35.8089L20.353 35.9586L20.0538 35.8837L19.6796 35.9586L19.5149 35.9769L19.5353 36.0541H19.3656H19.0982H18.9281L18.8894 35.9553L18.8084 35.9025L18.6836 35.9084L18.6319 35.931L18.4075 35.5845L18.5947 35.3974L18.9313 35.2852L19.3429 35.2103L19.4658 35.1796L19.4678 35.0989L19.4378 34.9571L19.53 34.911L19.4177 34.4994L19.2681 34.275L19.0436 33.9383L18.5947 33.8635L18.3327 33.6764L17.9961 33.7138L17.5471 33.9009H17.4952L17.4445 33.5803L17.3777 33.1568L17.2216 33.0231L17.0583 33.0149L17.05 32.9854L16.865 32.9563L16.8205 32.5105L16.7982 32.1316L16.7314 31.8865L16.7048 31.5013L16.6623 31.4811L16.5222 31.3904L16.4553 31.2524L16.3419 30.9514L16.324 30.7282L16.4358 30.5073L16.4602 30.3865L16.395 30.2657L16.0165 29.8074L15.8408 29.499L15.7765 29.4594L15.7102 29.3836L15.6582 29.2298L15.6653 29.0712L15.7374 28.8652L15.806 28.7179L15.8617 28.2935L16.088 28.1019L16.3125 28.0645L16.7615 28.1019L17.0608 28.3264L17.2853 28.2142L17.5097 27.9523V27.7674L17.547 27.746L17.592 27.6491L17.634 27.4818L17.6694 27.3611L17.7374 27.2258L17.8202 27.1252L17.9208 27.0496L18.0781 26.9521L18.2325 26.8256L18.3242 26.6517L18.2555 26.3746L18.1743 26.1772L18.1221 26.0543L18.0163 25.8827L17.8076 25.6641L17.4259 25.5298L17.2602 25.4889L17.0735 25.4454L16.8805 25.4061L16.7618 25.3761L16.6493 25.3275L16.473 25.1303L16.0308 24.2858L15.968 24.1499L15.9096 23.9965L15.948 23.1029L15.9716 22.9789L16.0213 22.8933L16.1171 22.7664L16.2235 22.678L16.2767 22.652L16.3181 22.7317L16.5606 22.9117L16.6943 22.9931L16.9438 23.0734L17.21 23.1578L17.4181 23.2551L17.547 23.3585L17.6369 23.4995L17.7186 23.594L17.8947 23.7887L18.0072 23.8466L18.1312 23.8819L18.2507 23.9115L18.6233 23.9387Z" fill="black"/>
<path d="M47.502 71.9908L47.7026 72.1024L47.7472 72.4144V72.5637L47.8216 72.5781L47.881 72.7263L48.1038 72.6595L48.2358 72.6522L48.6612 73.3742L48.7334 73.4547L49.1379 73.7494L49.4997 73.9371L49.9433 74.1636L50.0308 74.1673L50.1821 74.1352L50.2706 74.1083L50.5489 74.1439L50.7925 74.3766L50.9309 74.5146L50.9332 74.7277L50.9368 75.0752L50.3821 75.5733L50.1526 75.7781L50.1196 75.7757L50.0649 75.8577L49.7753 75.9021L49.6638 76.0582L49.7083 76.3703L49.7976 76.5931L49.909 77.0833L49.9313 77.5291L49.7529 77.9302L49.5301 78.3314L49.1067 78.7326L48.438 78.8662L47.7248 78.9108L47.2792 79L47.1678 78.8886L47.1169 78.7932L47.0802 78.8261L47.0379 78.7813L46.5796 78.382L46.3962 78.2582L46.288 78.2129L46.1189 78.1801L46.0409 78.1356L45.7126 77.8424L44.9912 77.187L44.8811 77.0215L44.7304 76.8973L44.4803 76.7485L44.1443 76.6459L43.8379 76.4259H44.0254L44.3151 76.2476L44.694 76.0917L44.9391 75.8687L45.1619 75.3562V75.1473L45.2431 75.0308L45.3862 74.745L45.592 74.3385L45.7411 74.059L45.8268 73.9291L45.8965 73.8775L46.0397 73.8393L46.188 73.782L46.2815 73.723L46.55 73.4105L46.7901 73.1141L46.7937 72.9838L46.7629 72.8982L46.692 72.7305L46.7097 72.6076L46.8138 72.2845L46.9558 72.104L47.0918 72.0273L47.3082 72.0211L47.3362 72.0361L47.502 71.9908Z" fill="black"/>
<path d="M4.71072 16.7482L4.57067 16.6866L4.43821 16.6824L4.24599 16.7131L4.09158 16.9886L4.09358 17.0102L4.05029 17.0376L3.96032 17.1082L3.5713 17.4503L3.51983 17.4593L3.48293 17.5578L3.14448 17.6831L2.53024 17.7208H1.96607L1.69026 17.4951L1.5957 17.2113L1.71211 17.1348L1.88467 16.7949L2.01893 16.6071L2.22292 16.4622L2.46959 16.3147L2.54939 16.2185L2.58241 16.0395L2.6239 15.9041L2.68305 15.7828L2.74809 15.7022L3.15376 15.4389L3.45889 15.28L3.66347 15.1653L3.85399 14.9117L3.89528 14.8328L3.96131 14.6994L4.0852 14.6484L4.33417 14.6443L4.4394 14.6386L4.53287 14.615L4.61626 14.5532L4.62503 14.5407L4.8369 14.6054L4.98732 14.6556L5.04996 14.9314L5.12517 15.2072L5.21295 15.4705L5.23808 15.8967L5.16277 16.2101L5.07509 16.4483L4.89954 16.6363L4.71072 16.7482Z" fill="black"/>
<path d="M30.6871 31.0173L31.1106 31.0619L31.4003 31.307L31.69 31.53L31.6985 31.6656L31.711 31.6724L31.7897 31.7323L31.8302 31.7794L31.7662 31.7863L31.756 31.8885L31.8855 31.974L32.0628 32.1223L32.3478 32.4045L32.4057 32.5081L32.4472 32.584L32.5353 32.645L32.8315 32.753L32.9498 32.785L33.0244 32.836L33.0793 32.9511L33.0605 33.134L32.9447 33.2766L32.7249 33.248L32.7464 33.569L32.8129 33.6503L33.0108 33.7221L33.2586 33.8621L33.497 34.3094L33.663 34.8556L33.7281 35.0847L33.763 35.2966L33.9954 35.4944L34.31 35.7165L34.5614 36.3658L34.8695 36.6733L35.0072 36.6963L35.1155 36.7241L35.2503 36.7842L35.3236 36.8442L35.384 36.9334L35.4289 37.0499L35.468 37.1712L35.5141 37.2437L35.7829 37.6501L36.0087 37.7696L36.1935 38.0185L36.2414 38.2642L36.2544 38.3529L36.2498 38.454L36.2236 38.5783L36.1764 38.6807L35.9328 39.0152L35.5247 39.4105L35.3603 39.5438L35.2544 39.6319L35.1787 39.7853L36.1149 39.8285L36.621 39.8344L36.711 39.832L37.1829 39.838L37.7069 39.9798L38.5785 40.1406L38.7087 40.1793L39.0073 40.3532L39.2161 40.8841L39.1941 41.037L39.1445 41.2L39.1827 41.3228L39.3266 41.4027L39.5236 41.5127L39.5897 41.6471L39.6493 41.8717L39.5745 42.1613L39.4999 42.3676L39.6785 42.3772H40.0688L40.2475 42.376H40.3798H40.5881H41.8157L42.5939 42.3748L42.9819 42.3737L43.287 42.3372L43.7808 42.0659L43.8724 41.8845L43.9592 41.772L44.4896 41.5876L44.6114 41.4841L44.6796 41.3431L45.0517 40.9401L45.2149 40.8352L45.4893 40.6636L46.0676 40.1715L46.3006 39.9571L46.3881 39.9255L46.3393 40.155L46.3492 40.3764L46.2912 40.7754L46.2722 41.4181L46.1984 41.4927L46.1433 41.6096L46.1291 41.9095L46.1303 42.1357L46.1298 42.2082L45.4662 43.2617L45.2232 43.3644V43.3767L44.8977 43.688L44.3901 44.216L43.9231 44.3986L43.6389 44.683L43.4966 44.8657L43.3545 45.292L43.3474 45.4929L43.3231 45.498L43.2936 45.8809L43.2124 46.1245L42.9484 46.3682L42.7657 46.5509L41.6083 46.5915L41.1437 46.5667L41.1225 46.5756L40.9949 46.5965L40.6992 46.6199H40.5797H40.4674L40.3042 46.5934L40.2836 46.5759L40.0043 46.6119L39.6904 46.5628L39.6917 46.5646L39.4763 46.5915L39.4358 46.7946L39.5982 46.9368L39.5373 47.1803L39.4358 47.5458L39.2531 47.8099L39.1237 47.9207L39.0279 47.9061L38.5461 48.0727L38.3095 48.2872L38.0114 48.4815L37.844 48.53L37.6324 48.4743L37.3331 48.3436L36.7405 48.2765L36.4047 48.0954L36.29 48.0008L36.1675 47.7114L35.8431 47.772L35.7517 47.8469L35.6441 47.8858L35.5058 47.9266L35.3532 47.9529L35.0457 48.0008L34.9416 48.0151L34.2716 48.0945L34.1802 48.0573L34.1721 48.0519L34.2085 47.6542L34.1192 47.0079L33.9329 46.8616L33.9349 46.8509L33.6957 46.785L33.6513 46.4061L33.6411 46.1122L33.6234 46.0842L33.4667 45.8802L33.3171 45.7612L32.7719 45.5955L32.6755 45.7774L32.5868 45.9545L32.5502 46.0059L32.5591 46.1943V46.4173L32.5369 46.8184L32.4477 47.108L32.2472 47.2196L31.8237 47.1304L31.7123 46.7961L31.6643 46.5239L31.3094 46.5779L31.1565 46.6215L31.066 46.5955L30.4642 46.6401H30.0186L29.72 46.5335L29.6985 46.4701L29.6619 46.281L29.6094 46.0052L29.7789 45.9281L30.0687 45.6782L30.1219 45.6074L30.2545 45.4532L30.5513 45.1591L30.7937 45.0336L30.9238 44.9917L31.0622 44.9414L31.0824 44.8506L31.0687 44.8336L31.1998 44.768L31.222 44.5675L31.1551 44.3892L31.0437 44.3224L30.8431 44.1218L30.7317 43.832L30.7762 43.5423L30.8878 43.2971L30.91 42.9628L30.6202 42.9183L30.4196 42.7622L30.1522 42.4057L30.13 42.0268L30.0408 41.6924L29.8752 41.6166L29.7931 41.3884L29.7702 41.3272L29.7956 40.957L29.662 40.6897L29.5728 40.3998L29.3499 40.2439L29.1717 39.9987L29.1494 39.7537L29.2385 39.5085L29.4168 39.2856L29.3277 38.9513L29.1494 38.7284V38.2827L29.0737 37.9583L29.1415 37.6361L29.3922 37.1484L29.5957 37.0164L29.6086 36.9061L29.5803 36.7622L29.5169 36.6169L29.4117 36.5144L29.333 36.4734L29.1698 36.4532L28.9333 36.4365L28.789 36.4473L28.6932 36.4711L28.3482 36.6118L28.3051 36.6414L28.2133 36.99L28.0573 37.4136L28.0351 37.7032L27.9236 37.9038H27.7231L27.6116 37.681L27.2995 37.7255L27.0309 37.7768L26.997 37.8244L26.943 38.2158L26.7201 38.4833L26.7425 38.929L26.5641 39.1073L26.3413 39.3079L26.0069 39.3971L25.7659 39.3392L25.3508 39.5558L25.1521 39.7141L25.0712 39.7564L24.848 39.6867L24.6698 39.4416L24.4916 39.1296L24.2686 38.7284L24.2018 38.5947L24.1229 38.5257L24.1017 38.407L24.0373 38.2642L23.967 38.1881L23.7304 37.66L23.5996 37.1711L23.6669 36.7672L23.6807 36.4218L23.8321 36.3558L23.9078 36.2939L23.9858 36.1942L24.2461 35.9173L24.8078 35.4285H24.9936L25.1296 35.511L25.2278 35.599L25.3283 35.6939L25.341 35.7047L25.5698 35.6474L25.7172 35.5328V35.274L25.7395 35.0066V34.6277L25.8378 34.44L26.1042 34.2394L26.3798 34.2869L26.5222 34.3029L26.6309 34.1821L26.8316 34.0037L27.0544 33.7363L27.5447 33.7809L27.6726 33.8576L27.7247 33.8421L27.7676 33.8923L28.2133 33.9369L28.7705 33.8923L29.0157 33.7585L29.122 33.5103L29.197 33.4682L29.3307 33.3745L29.4064 33.2624L29.4277 33.1527L29.443 32.7767L29.378 31.932L29.3485 31.7548L29.3122 31.5624L29.3945 31.4185L29.5505 31.2625L29.7216 31.0059L29.7334 31.0137L29.745 31.0233L29.7511 30.995L29.8402 30.839L29.9962 30.7944L30.2192 30.8168L30.3751 30.995L30.6871 31.0173Z" fill="black"/>
<path d="M49.7374 64.7625L50.0714 65.0358L50.1624 65.4H50.4661L50.7089 65.4608L50.8608 65.7644L51.2859 65.7947L51.468 65.9465L51.622 66.0126L51.2717 66.7583L51.6186 67.6853L51.9617 68.6016L52.115 68.6814L52.4493 68.9043L52.7472 69.1227L52.5306 69.256L52.3485 69.5899L51.9538 69.7417L51.6197 69.681L51.4072 69.347H51.1947L50.8 69.5292L50.5571 69.2863L50.6786 68.9523L50.8912 68.7095L50.8303 68.5273L50.375 68.4362L50.1987 68.3429L50.1929 68.3754H49.8285L49.707 68.1326L49.6159 67.8896L49.4945 67.9505L49.3731 68.1933L49.2212 68.1326L49.0086 67.9505H48.8265L48.5837 67.9807L48.4927 67.7075L48.4318 67.3735L48.3407 67.0396L48.6444 66.9181L48.8569 66.827L48.948 66.5538L49.1301 66.5234V66.1287L48.9176 66.0073L48.8569 65.7037L49.0086 65.5518L49.2516 65.4L49.1909 64.975L49.0086 64.8838L48.6444 64.9143L48.3712 64.8838H48.098L48.0371 64.7017L48.098 64.5196L48.4318 64.4891H48.7659L49.0695 64.5803L49.4338 64.6715L49.7374 64.7625Z" fill="black"/>
</svg>
