<svg width="59" height="59" viewBox="0 0 59 59" fill="none" xmlns="http://www.w3.org/2000/svg">
<circle cx="29.5" cy="29.5" r="28.5" stroke="black" stroke-width="2"/>
<path fill-rule="evenodd" clip-rule="evenodd" d="M31 13C22.1632 13 15 20.1632 15 29C15 32.024 15.84 34.856 17.3008 37.2688L15.8736 42.12C15.7917 42.3985 15.7863 42.694 15.858 42.9753C15.9297 43.2567 16.0759 43.5135 16.2812 43.7188C16.4865 43.9241 16.7433 44.0703 17.0247 44.142C17.306 44.2137 17.6015 44.2083 17.88 44.1264L22.7312 42.6992C25.2251 44.2081 28.0852 45.0039 31 45C39.8368 45 47 37.8368 47 29C47 20.1632 39.8368 13 31 13ZM27.3808 32.6208C30.6176 35.856 33.7072 36.2832 34.7984 36.3232C36.4576 36.384 38.0736 35.1168 38.7024 33.6464C38.7818 33.4635 38.8106 33.2626 38.7858 33.0647C38.7611 32.8669 38.6836 32.6793 38.5616 32.5216C37.6848 31.4016 36.4992 30.5968 35.3408 29.7968C35.0989 29.6296 34.8017 29.5625 34.5115 29.6096C34.2212 29.6567 33.9605 29.8144 33.784 30.0496L32.824 31.5136C32.7735 31.5923 32.6949 31.6487 32.6042 31.6713C32.5134 31.6939 32.4175 31.681 32.336 31.6352C31.6848 31.2624 30.736 30.6288 30.0544 29.9472C29.3728 29.2656 28.7776 28.36 28.4432 27.7504C28.4017 27.6729 28.3898 27.5831 28.4095 27.4975C28.4292 27.4119 28.4792 27.3363 28.5504 27.2848L30.0288 26.1872C30.2398 26.0037 30.3759 25.7491 30.4113 25.4718C30.4468 25.1944 30.3789 24.9138 30.2208 24.6832C29.504 23.6336 28.6688 22.2992 27.4576 21.4144C27.3013 21.3011 27.1182 21.2305 26.9263 21.2095C26.7344 21.1884 26.5403 21.2177 26.3632 21.2944C24.8912 21.9248 23.6176 23.5408 23.6784 25.2032C23.7184 26.2944 24.1456 29.384 27.3808 32.6208Z" fill="black"/>
</svg>
